<?xml version="1.0" encoding="UTF-8" standalone="no"?>
<!DOCTYPE svg PUBLIC "-//W3C//DTD SVG 1.1//EN" "http://www.w3.org/Graphics/SVG/1.1/DTD/svg11.dtd">
<svg width="100%" height="100%" viewBox="0 0 24 24" version="1.1" xmlns="http://www.w3.org/2000/svg" xmlns:xlink="http://www.w3.org/1999/xlink" xml:space="preserve" xmlns:serif="http://www.serif.com/" style="fill-rule:evenodd;clip-rule:evenodd;stroke-linejoin:round;stroke-miterlimit:2;">
    <g transform="matrix(1.32895,0,0,1.32895,-3.92394,-3.92394)">
        <path d="M17.5,12C16.677,12 16,11.323 16,10.5C16,9.677 16.677,9 17.5,9C18.323,9 19,9.677 19,10.5C19,11.323 18.323,12 17.5,12M14.5,8C13.677,8 13,7.323 13,6.5C13,5.677 13.677,5 14.5,5C15.323,5 16,5.677 16,6.5C16,7.323 15.323,8 14.5,8M9.5,8C8.677,8 8,7.323 8,6.5C8,5.677 8.677,5 9.5,5C10.323,5 11,5.677 11,6.5C11,7.323 10.323,8 9.5,8M6.5,12C5.677,12 5,11.323 5,10.5C5,9.677 5.677,9 6.5,9C7.323,9 8,9.677 8,10.5C8,11.323 7.323,12 6.5,12M12,3C7.063,3 3,7.063 3,12C3,16.937 7.063,21 12,21C12.823,21 13.5,20.323 13.5,19.5C13.5,19.11 13.35,18.76 13.11,18.5C12.88,18.23 12.73,17.88 12.73,17.5C12.73,16.677 13.407,16 14.23,16L16,16C18.743,16 21,13.743 21,11C21,6.58 16.97,3 12,3Z" style="fill-rule:nonzero;"/>
    </g>
</svg>
