<?xml version="1.0" encoding="UTF-8"?>
<svg id="Layer_1" xmlns="http://www.w3.org/2000/svg" viewBox="0 0 1936.54 424.43">
  <defs>
    <style>
      .cls-1 {
        stroke-width: 2px;
      }

      .cls-1, .cls-2, .cls-3, .cls-4 {
        stroke-miterlimit: 10;
      }

      .cls-1, .cls-2, .cls-4 {
        stroke: #000;
      }

      .cls-1, .cls-3 {
        fill: #8cc63f;
      }

      .cls-5, .cls-2 {
        fill: #185f8b;
      }

      .cls-2, .cls-3, .cls-4 {
        stroke-width: 3px;
      }

      .cls-3 {
        stroke: blue;
      }

      .cls-6 {
        fill-rule: evenodd;
      }

      .cls-4 {
        fill: #fff38d;
      }
    </style>
  </defs>
  <path class="cls-3" d="M275.49,6.55C202.91,50.53,130.34,94.51,57.77,138.5c-9.05,3.32-11.85,7.24-12.64,10.34-1.05,4.1,1.32,7.17-.57,12.64-1.25,3.59-3.51,5.84-4.6,6.89-5.63,5.48-10.96,4.03-17.23,7.47-4.62,2.53-6.91,6.47-11.49,14.36-6.44,11.09-11.16,19.22-9.34,29.3,2.11,11.69,11.7,18.76,12.79,19.53,7.67,5.48,12.26,3.12,20.68,9.77,5.82,4.59,9.16,10.09,10.34,12.06,5.25,8.8,3.91,13.3,9.19,18.38.83.8,2.86,2.61,11.49,5.74,9.7,3.52,17.51,5,24.7,6.32,16.13,2.96,24.2,4.44,26.43,4.6,15.11,1.02,21.06-6.72,30.45-2.3,4.13,1.95,3.83,3.55,9.77,6.32,6.83,3.18,9.37,2.05,16.66,5.17,4.75,2.03,7.96,4.35,11.49,6.89,8.94,6.45,7.91,8.42,13.21,10.91,7.36,3.46,10.67.29,16.66,4.6.53.38,6.58,4.83,5.74,9.19-.48,2.5-2.75,2.56-5.17,5.74-4.25,5.59-3.02,12.99-2.87,13.79.54,3,1.55,3.91,6.32,12.06,5.14,8.8,4.35,8.38,5.17,9.19,4.67,4.66,9.73,3.16,21.83,6.89,5.85,1.81,4.86,2.64,9.19,3.45,5.98,1.11,8.75-.48,15.51-1.15,6.2-.62,13.72-1.36,20.68,2.3,6.94,3.65,10.74,10.32,12.06,12.64,2.12,3.72,2.24,5.56,5.17,10.91,2.34,4.27,4.68,7.53,6.32,9.63,20.3-20.83,40.6-41.65,60.89-62.48,9.19,9.38,18.38,18.77,27.57,28.15,1.04-1.33,2.73-3.26,5.17-5.17,2.42-1.9,3.7-2.31,5.74-4.02,2.87-2.41,4.55-5.13,5.17-6.32,3.78-7.26-1.06-16.57-1.72-17.81,30.8-55.54,52.3-93.48,56.87-99.38,1.1-1.42,1.68-5.29,4.6-9.77,2.39-3.67,3.79-4.44,4.6-7.47.99-3.73-.36-5.45,1.15-7.47,2.04-2.73,6.81-2.65,6.89-2.3.18.77-8.2,6.65-14.94,4.6-6.47-1.98-6.04-9.7-12.06-10.91-4.67-.95-6.19,3.44-14.3,3.68-1.15.03-8.3.25-9.83-3.11-1.23-2.69,2.27-5.18,1.15-7.47-1.72-3.51-10.8.59-14.92-3.56-4.13-4.15,1.76-11.47-2.31-16.55-4.12-5.13-12.51-.61-17.55-6.44-.84-.98-1.69-4.27-3.36-10.82-1.7-6.72-2.56-10.07-3.22-13.76-1.75-9.75-.85-11.25-2.95-13.84-3.21-3.96-6.42-1.81-11.1-5.76-5.62-4.74-2.85-9.41-8.43-14.92-4.42-4.36-6.91-2.2-13.02-7.28-3.6-3-2.69-3.72-8.81-10.72-4.47-5.12-7.08-8.07-11.49-10.72-3.78-2.28-7.06-3.25-10.34-4.21-5.22-1.54-9.8-2.09-15.32-2.73-8.01-.93-8.55-.4-10.65-1.56-6.09-3.37-7.85-11.32-8.12-12.55-1.41-6.38,1.04-8.59-1.17-12.27-2.14-3.56-5.5-3.26-10.21-5.92-5.6-3.15-8.2-7.86-13.39-17.28-5.63-10.21-8.56-15.52-7.78-22.74.75-6.94,4.54-12.01,6.97-14.71Z"/>
  <path class="cls-2" d="M275.49,6.55C202.91,50.53,130.34,94.51,57.77,138.5c-9.05,3.32-11.85,7.24-12.64,10.34-1.05,4.1,1.32,7.17-.57,12.64-1.25,3.59-3.51,5.84-4.6,6.89-5.63,5.48-10.96,4.03-17.23,7.47-4.62,2.53-6.91,6.47-11.49,14.36-6.44,11.09-11.16,19.22-9.34,29.3,2.11,11.69,11.7,18.76,12.79,19.53,7.67,5.48,12.26,3.12,20.68,9.77,5.82,4.59,9.16,10.09,10.34,12.06,5.25,8.8,3.91,13.3,9.19,18.38.83.8,2.86,2.61,11.49,5.74,9.7,3.52,17.51,5,24.7,6.32,16.13,2.96,24.2,4.44,26.43,4.6,15.11,1.02,21.06-6.72,30.45-2.3,4.13,1.95,3.83,3.55,9.77,6.32,6.83,3.18,9.37,2.05,16.66,5.17,4.75,2.03,7.96,4.35,11.49,6.89,8.94,6.45,7.91,8.42,13.21,10.91,7.36,3.46,10.67.29,16.66,4.6.53.38,6.58,4.83,5.74,9.19-.48,2.5-2.75,2.56-5.17,5.74-4.25,5.59-3.02,12.99-2.87,13.79.54,3,1.55,3.91,6.32,12.06,5.14,8.8,4.35,8.38,5.17,9.19,4.67,4.66,9.73,3.16,21.83,6.89,5.85,1.81,4.86,2.64,9.19,3.45,5.98,1.11,8.75-.48,15.51-1.15,6.2-.62,13.72-1.36,20.68,2.3,6.94,3.65,10.74,10.32,12.06,12.64,2.12,3.72,2.24,5.56,5.17,10.91,2.34,4.27,4.68,7.53,6.32,9.63,20.3-20.83,40.6-41.65,60.89-62.48,9.19,9.38,18.38,18.77,27.57,28.15,1.04-1.33,2.73-3.26,5.17-5.17,2.42-1.9,3.7-2.31,5.74-4.02,2.87-2.41,4.55-5.13,5.17-6.32,3.78-7.26-1.06-16.57-1.72-17.81,30.8-55.54,52.3-93.48,56.87-99.38,1.1-1.42,1.68-5.29,4.6-9.77,2.39-3.67,3.79-4.44,4.6-7.47.99-3.73-.36-5.45,1.15-7.47,2.04-2.73,6.81-2.65,6.89-2.3.18.77-8.2,6.65-14.94,4.6-6.47-1.98-6.04-9.7-12.06-10.91-4.67-.95-6.19,3.44-14.3,3.68-1.15.03-8.3.25-9.83-3.11-1.23-2.69,2.27-5.18,1.15-7.47-1.72-3.51-10.8.59-14.92-3.56-4.13-4.15,1.76-11.47-2.31-16.55-4.12-5.13-12.51-.61-17.55-6.44-.84-.98-1.69-4.27-3.36-10.82-1.7-6.72-2.56-10.07-3.22-13.76-1.75-9.75-.85-11.25-2.95-13.84-3.21-3.96-6.42-1.81-11.1-5.76-5.62-4.74-2.85-9.41-8.43-14.92-4.42-4.36-6.91-2.2-13.02-7.28-3.6-3-2.69-3.72-8.81-10.72-4.47-5.12-7.08-8.07-11.49-10.72-3.78-2.28-7.06-3.25-10.34-4.21-5.22-1.54-9.8-2.09-15.32-2.73-8.01-.93-8.55-.4-10.65-1.56-6.09-3.37-7.85-11.32-8.12-12.55-1.41-6.38,1.04-8.59-1.17-12.27-2.14-3.56-5.5-3.26-10.21-5.92-5.6-3.15-8.2-7.86-13.39-17.28-5.63-10.21-8.56-15.52-7.78-22.74.75-6.94,4.54-12.01,6.97-14.71Z"/>
  <path class="cls-4" d="M214.6,182.03l-125.09,73.53h38.99v39.56c7.79-1.63,12.74-4.67,19.45-1.52,4.13,1.95,3.83,3.55,9.77,6.32,6.83,3.18,9.37,2.05,16.66,5.17,4.75,2.03,7.96,4.35,11.49,6.89,8.94,6.45,7.91,8.42,13.21,10.91,7.36,3.46,10.67.29,16.66,4.6.53.38,6.58,4.83,5.74,9.19-.48,2.5-2.75,2.56-5.17,5.74-4.25,5.59-3.02,12.99-2.87,13.79.54,3,1.55,3.91,6.32,12.06,5.14,8.8,4.35,8.38,5.17,9.19,4.67,4.66,9.73,3.16,21.83,6.89,5.85,1.81,4.86,2.64,9.19,3.45,5.98,1.11,8.75-.48,15.51-1.15,6.2-.62,13.72-1.36,20.68,2.3,3.72,1.96,6.53,4.78,8.55,7.34v-140.74h38.99l-125.09-73.53Z"/>
  <g>
    <path class="cls-6" d="M213.15,277.82c0-.84.69-1.53,1.53-1.53s1.53.69,1.53,1.53v15.71c0,.84-.69,1.53-1.53,1.53s-1.53-.69-1.53-1.53v-15.71h0ZM204.73,273.43c.52-.66,1.48-.77,2.14-.25s.77,1.48.25,2.14l-9.98,12.62c-.52.66-1.48.77-2.14.25-.66-.52-.77-1.48-.25-2.14l9.98-12.62h0ZM216.58,183.37v39.37c3.29.79,5.75,3.76,5.75,7.27v.48h-14.95v-.48c0-3.52,2.47-6.49,5.75-7.27v-39.37s3.45,0,3.45,0ZM214.79,271.94h0c4.03,0,7.34-3.3,7.34-7.34v-.47h-14.68v.47c0,4.04,3.3,7.34,7.34,7.34h0ZM201.45,265.38c.81-.23,1.65.23,1.89,1.04s-.23,1.65-1.04,1.89l-15.46,4.47c-.81.23-1.65-.23-1.89-1.04-.23-.81.23-1.65,1.04-1.89l15.46-4.47h0ZM225.05,274.08l9.98,12.62c.52.66.41,1.62-.25,2.14-.66.52-1.62.41-2.14-.25l-9.98-12.62c-.52-.66-.41-1.62.25-2.14s1.62-.41,2.14.25h0ZM228.33,266.03l15.46,4.47c.81.23,1.27,1.08,1.04,1.89-.23.81-1.08,1.27-1.89,1.04l-15.46-4.47c-.81-.23-1.27-1.08-1.04-1.89s1.08-1.27,1.89-1.04h0Z"/>
    <path d="M222.33,232.12v.05h-14.95v-.05c-19.72,2.59-34.69,15.21-34.69,30.4h84.33c0-15.19-14.97-27.81-34.69-30.4Z"/>
  </g>
  <path class="cls-1" d="M89.03,203.42c.09,4.29-1.08,8.43-3.51,12.43-2.43,4-6.17,7.51-11.22,10.53l-7.75,4.63,11.84,19.81-19.55,11.68-37.25-62.34,27.3-16.31c7.63-4.56,14.64-6.12,21.04-4.69,6.39,1.44,11.54,5.41,15.43,11.93,2.35,3.93,3.57,8.04,3.66,12.33ZM65.55,202.93c-2.28-3.82-5.45-4.51-9.5-2.09l-5.55,3.32,6.84,11.45,5.55-3.31c4.05-2.42,4.94-5.54,2.66-9.35Z"/>
  <path class="cls-1" d="M128.12,216.32c-6.55.17-12.72-1.32-18.51-4.48-5.79-3.15-10.51-7.78-14.15-13.89-3.65-6.1-5.49-12.45-5.53-19.04-.04-6.59,1.58-12.72,4.85-18.38,3.27-5.66,7.84-10.24,13.71-13.75,5.87-3.51,12.06-5.35,18.56-5.53,6.5-.18,12.63,1.31,18.39,4.48,5.76,3.17,10.46,7.81,14.11,13.91,3.65,6.11,5.5,12.45,5.57,19.02.06,6.58-1.53,12.71-4.78,18.39-3.25,5.69-7.78,10.27-13.6,13.74-5.87,3.51-12.08,5.35-18.63,5.52ZM142.6,183.47c.62-3.76-.33-7.75-2.85-11.98-2.56-4.28-5.64-7.04-9.25-8.28-3.6-1.23-7.34-.69-11.22,1.62-3.93,2.35-6.21,5.41-6.83,9.16-.62,3.76.35,7.78,2.91,12.06,2.53,4.23,5.59,6.96,9.19,8.19,3.61,1.23,7.37.67,11.31-1.68,3.87-2.32,6.12-5.35,6.75-9.11Z"/>
  <path class="cls-1" d="M269.77,107.75l-17.04,72.53-28.31-.17-8.17-41.29-8.65,41.19-28.31-.17-16.19-72.72,24.52.14,6.3,45.79,10.12-45.69,24.82.15,9.58,45.81,6.84-45.71,24.52.15Z"/>
  <path class="cls-1" d="M305.33,163.93l-4.55,7.68,19.41,11.51-8.74,14.74-19.41-11.51-5.23,8.82,22.06,13.08-9.26,15.62-41.65-24.69,37.03-62.47,41.65,24.69-9.26,15.62-22.06-13.08Z"/>
  <path class="cls-1" d="M347.7,249.76l1.55-29.37-.09-.05-13.29,22.41-19.59-11.61,37.04-62.47,29.12,17.26c5.06,3,8.85,6.46,11.38,10.38,2.52,3.92,3.77,7.96,3.73,12.11-.04,4.15-1.21,8.17-3.51,12.05-2.48,4.18-5.84,7.2-10.08,9.05-4.24,1.86-8.96,2.2-14.15,1.03l-.59,31.97-21.53-12.76ZM356.9,207.28l7.76,4.6c1.88,1.12,3.55,1.53,4.99,1.23,1.45-.29,2.71-1.35,3.79-3.18.98-1.65,1.26-3.23.85-4.75-.41-1.52-1.53-2.82-3.35-3.9l-7.76-4.6-6.28,10.59Z"/>
  <g>
    <path class="cls-5" d="M563.84,357.79c1.52-2.59,3.58-4.62,6.19-6.07,2.61-1.46,5.46-2.18,8.57-2.18,3.55,0,6.71.87,9.48,2.62s4.78,4.22,6.03,7.42h-6.58c-.87-1.76-2.06-3.07-3.6-3.94-1.54-.86-3.31-1.3-5.33-1.3-2.21,0-4.18.5-5.9,1.49-1.73.99-3.08,2.42-4.06,4.27-.98,1.86-1.46,4.02-1.46,6.48s.49,4.62,1.46,6.48c.98,1.86,2.33,3.29,4.06,4.3,1.73,1.01,3.7,1.51,5.9,1.51,2.02,0,3.79-.43,5.33-1.3,1.54-.86,2.74-2.18,3.6-3.94h6.58c-1.25,3.2-3.26,5.66-6.03,7.39-2.77,1.73-5.93,2.59-9.48,2.59-3.14,0-6-.73-8.59-2.18-2.59-1.46-4.65-3.48-6.17-6.07s-2.28-5.52-2.28-8.78.76-6.19,2.28-8.78Z"/>
    <path class="cls-5" d="M605.19,382.06c-2.02-1.13-3.6-2.74-4.75-4.8-1.15-2.06-1.73-4.46-1.73-7.18s.59-5.07,1.78-7.15c1.18-2.08,2.8-3.68,4.85-4.8,2.05-1.12,4.34-1.68,6.86-1.68s4.82.56,6.87,1.68c2.05,1.12,3.66,2.72,4.85,4.8,1.18,2.08,1.78,4.46,1.78,7.15s-.61,5.07-1.82,7.15c-1.21,2.08-2.87,3.69-4.97,4.82-2.1,1.14-4.41,1.7-6.94,1.7s-4.75-.57-6.77-1.7ZM615.92,378c1.23-.67,2.23-1.68,3-3.02.77-1.34,1.15-2.98,1.15-4.9s-.37-3.54-1.1-4.87c-.74-1.33-1.71-2.33-2.93-3-1.22-.67-2.53-1.01-3.94-1.01s-2.71.34-3.91,1.01c-1.2.67-2.15,1.67-2.86,3-.7,1.33-1.06,2.95-1.06,4.87,0,2.85.73,5.05,2.19,6.6,1.46,1.55,3.29,2.33,5.5,2.33,1.41,0,2.73-.34,3.96-1.01Z"/>
    <path class="cls-5" d="M650.04,357.75c1.65.86,2.94,2.14,3.87,3.84.93,1.7,1.39,3.74,1.39,6.14v15.6h-5.42v-14.78c0-2.37-.59-4.18-1.78-5.45-1.18-1.26-2.8-1.9-4.85-1.9s-3.67.63-4.87,1.9c-1.2,1.26-1.8,3.08-1.8,5.45v14.78h-5.47v-26.45h5.47v3.02c.89-1.09,2.04-1.94,3.43-2.54,1.39-.61,2.87-.91,4.44-.91,2.08,0,3.94.43,5.59,1.3Z"/>
    <path class="cls-5" d="M681.2,357.75c1.65.86,2.94,2.14,3.86,3.84.93,1.7,1.39,3.74,1.39,6.14v15.6h-5.42v-14.78c0-2.37-.59-4.18-1.78-5.45-1.18-1.26-2.8-1.9-4.85-1.9s-3.67.63-4.87,1.9c-1.2,1.26-1.8,3.08-1.8,5.45v14.78h-5.47v-26.45h5.47v3.02c.9-1.09,2.04-1.94,3.43-2.54,1.39-.61,2.87-.91,4.44-.91,2.08,0,3.94.43,5.59,1.3Z"/>
    <path class="cls-5" d="M717.46,372.15h-20.21c.16,2.11.94,3.81,2.35,5.09s3.14,1.92,5.18,1.92c2.95,0,5.02-1.23,6.24-3.7h5.9c-.8,2.43-2.25,4.42-4.34,5.98-2.1,1.55-4.7,2.33-7.8,2.33-2.53,0-4.79-.57-6.79-1.7-2-1.13-3.57-2.74-4.7-4.8-1.14-2.06-1.71-4.46-1.71-7.18s.55-5.11,1.66-7.18c1.1-2.06,2.66-3.66,4.66-4.78,2-1.12,4.29-1.68,6.89-1.68s4.72.54,6.67,1.63c1.95,1.09,3.47,2.62,4.56,4.58s1.63,4.23,1.63,6.79c0,.99-.06,1.89-.19,2.69ZM711.94,367.73c-.03-2.02-.75-3.63-2.16-4.85-1.41-1.22-3.15-1.82-5.23-1.82-1.89,0-3.5.6-4.85,1.8-1.34,1.2-2.14,2.82-2.4,4.87h14.64Z"/>
    <path class="cls-5" d="M722.86,362.91c1.1-2.06,2.63-3.66,4.58-4.78,1.95-1.12,4.19-1.68,6.72-1.68,3.2,0,5.85.76,7.94,2.28s3.51,3.69,4.25,6.5h-5.9c-.48-1.31-1.25-2.34-2.3-3.07-1.05-.74-2.38-1.1-3.98-1.1-2.24,0-4.03.79-5.35,2.38-1.33,1.58-1.99,3.8-1.99,6.65s.66,5.07,1.99,6.67c1.33,1.6,3.11,2.4,5.35,2.4,3.17,0,5.26-1.39,6.29-4.18h5.9c-.77,2.69-2.21,4.82-4.32,6.41s-4.74,2.38-7.87,2.38c-2.53,0-4.77-.57-6.72-1.7-1.95-1.13-3.48-2.74-4.58-4.8-1.1-2.06-1.66-4.46-1.66-7.18s.55-5.11,1.66-7.18Z"/>
    <path class="cls-5" d="M758.21,361.34v14.64c0,.99.23,1.7.7,2.14.46.43,1.26.65,2.38.65h3.36v4.56h-4.32c-2.46,0-4.35-.58-5.66-1.73-1.31-1.15-1.97-3.02-1.97-5.62v-14.64h-3.12v-4.46h3.12v-6.58h5.52v6.58h6.43v4.46h-6.43Z"/>
    <path class="cls-5" d="M769.97,352.37c-.67-.67-1.01-1.5-1.01-2.5s.34-1.82,1.01-2.5,1.5-1.01,2.5-1.01,1.78.34,2.45,1.01,1.01,1.5,1.01,2.5-.34,1.82-1.01,2.5-1.49,1.01-2.45,1.01-1.82-.34-2.5-1.01ZM775.15,356.88v26.45h-5.47v-26.45h5.47Z"/>
    <path class="cls-5" d="M801.29,357.75c1.65.86,2.94,2.14,3.86,3.84.93,1.7,1.39,3.74,1.39,6.14v15.6h-5.42v-14.78c0-2.37-.59-4.18-1.78-5.45-1.18-1.26-2.8-1.9-4.85-1.9s-3.67.63-4.87,1.9c-1.2,1.26-1.8,3.08-1.8,5.45v14.78h-5.47v-26.45h5.47v3.02c.9-1.09,2.04-1.94,3.43-2.54,1.39-.61,2.87-.91,4.44-.91,2.08,0,3.94.43,5.59,1.3Z"/>
    <path class="cls-5" d="M829.61,357.67c1.58.82,2.82,1.83,3.72,3.05v-3.84h5.52v26.88c0,2.43-.51,4.6-1.54,6.5-1.03,1.9-2.51,3.4-4.44,4.49s-4.25,1.63-6.94,1.63c-3.58,0-6.56-.84-8.93-2.52-2.37-1.68-3.71-3.96-4.03-6.84h5.42c.41,1.38,1.3,2.49,2.66,3.34,1.36.85,2.98,1.27,4.87,1.27,2.21,0,3.99-.67,5.35-2.02,1.36-1.34,2.04-3.3,2.04-5.86v-4.42c-.93,1.25-2.18,2.3-3.77,3.14s-3.38,1.27-5.4,1.27c-2.3,0-4.41-.58-6.31-1.75-1.9-1.17-3.41-2.8-4.51-4.9s-1.66-4.47-1.66-7.13.55-5.01,1.66-7.06c1.1-2.05,2.61-3.64,4.51-4.78s4.01-1.7,6.31-1.7c2.05,0,3.86.41,5.45,1.22ZM832.2,365.33c-.75-1.34-1.74-2.37-2.95-3.07-1.22-.7-2.53-1.06-3.94-1.06s-2.72.34-3.94,1.03c-1.21.69-2.2,1.7-2.95,3.02-.75,1.33-1.13,2.9-1.13,4.73s.38,3.42,1.13,4.8,1.74,2.42,2.98,3.14c1.23.72,2.54,1.08,3.91,1.08s2.72-.35,3.94-1.06c1.21-.7,2.2-1.74,2.95-3.1s1.13-2.95,1.13-4.78-.38-3.41-1.13-4.75Z"/>
    <path class="cls-5" d="M877.61,357.75c1.58.86,2.83,2.14,3.74,3.84.91,1.7,1.37,3.74,1.37,6.14v15.6h-5.42v-14.78c0-2.37-.59-4.18-1.78-5.45-1.18-1.26-2.8-1.9-4.85-1.9s-3.67.63-4.87,1.9c-1.2,1.26-1.8,3.08-1.8,5.45v14.78h-5.47v-35.52h5.47v12.14c.93-1.12,2.1-1.98,3.53-2.59,1.42-.61,2.98-.91,4.68-.91,2.02,0,3.82.43,5.4,1.3Z"/>
    <path class="cls-5" d="M889.97,352.37c-.67-.67-1.01-1.5-1.01-2.5s.34-1.82,1.01-2.5,1.5-1.01,2.5-1.01,1.78.34,2.45,1.01,1.01,1.5,1.01,2.5-.34,1.82-1.01,2.5-1.49,1.01-2.45,1.01-1.82-.34-2.5-1.01ZM895.15,356.88v26.45h-5.47v-26.45h5.47Z"/>
    <path class="cls-5" d="M918.46,357.67c1.58.82,2.82,1.83,3.72,3.05v-3.84h5.52v26.88c0,2.43-.51,4.6-1.54,6.5-1.02,1.9-2.5,3.4-4.44,4.49-1.94,1.09-4.25,1.63-6.94,1.63-3.59,0-6.56-.84-8.93-2.52-2.37-1.68-3.71-3.96-4.03-6.84h5.42c.42,1.38,1.3,2.49,2.66,3.34,1.36.85,2.98,1.27,4.87,1.27,2.21,0,3.99-.67,5.35-2.02,1.36-1.34,2.04-3.3,2.04-5.86v-4.42c-.93,1.25-2.18,2.3-3.77,3.14s-3.38,1.27-5.4,1.27c-2.3,0-4.41-.58-6.31-1.75-1.9-1.17-3.41-2.8-4.51-4.9-1.1-2.1-1.65-4.47-1.65-7.13s.55-5.01,1.65-7.06c1.11-2.05,2.61-3.64,4.51-4.78,1.9-1.14,4.01-1.7,6.31-1.7,2.05,0,3.87.41,5.45,1.22ZM921.05,365.33c-.75-1.34-1.74-2.37-2.95-3.07-1.21-.7-2.53-1.06-3.94-1.06s-2.72.34-3.94,1.03c-1.22.69-2.2,1.7-2.95,3.02-.75,1.33-1.13,2.9-1.13,4.73s.38,3.42,1.13,4.8,1.74,2.42,2.98,3.14c1.23.72,2.54,1.08,3.91,1.08s2.72-.35,3.94-1.06c1.22-.7,2.2-1.74,2.95-3.1s1.13-2.95,1.13-4.78-.38-3.41-1.13-4.75Z"/>
    <path class="cls-5" d="M953.98,357.75c1.58.86,2.83,2.14,3.74,3.84.91,1.7,1.37,3.74,1.37,6.14v15.6h-5.42v-14.78c0-2.37-.59-4.18-1.78-5.45-1.18-1.26-2.8-1.9-4.85-1.9s-3.67.63-4.87,1.9c-1.2,1.26-1.8,3.08-1.8,5.45v14.78h-5.47v-35.52h5.47v12.14c.93-1.12,2.1-1.98,3.53-2.59,1.42-.61,2.98-.91,4.68-.91,2.02,0,3.82.43,5.4,1.3Z"/>
    <path class="cls-5" d="M982.53,382.63c-1.65-.75-2.95-1.78-3.91-3.07-.96-1.3-1.47-2.74-1.54-4.34h5.66c.1,1.12.63,2.06,1.61,2.81s2.2,1.13,3.67,1.13,2.73-.3,3.58-.89c.85-.59,1.27-1.35,1.27-2.28,0-.99-.47-1.73-1.42-2.21-.94-.48-2.44-1.01-4.49-1.58-1.98-.54-3.6-1.07-4.85-1.58s-2.33-1.3-3.24-2.35c-.91-1.06-1.37-2.45-1.37-4.18,0-1.41.42-2.7,1.25-3.86.83-1.17,2.02-2.09,3.58-2.76,1.55-.67,3.34-1.01,5.35-1.01,3.01,0,5.43.76,7.27,2.28s2.82,3.59,2.95,6.22h-5.47c-.1-1.18-.58-2.13-1.44-2.83-.87-.7-2.03-1.06-3.5-1.06s-2.54.27-3.31.82c-.77.54-1.15,1.26-1.15,2.16,0,.7.26,1.3.77,1.78.51.48,1.14.86,1.87,1.13.73.27,1.82.62,3.26,1.03,1.92.51,3.5,1.03,4.73,1.56,1.23.53,2.29,1.3,3.19,2.33.89,1.02,1.36,2.38,1.39,4.08,0,1.5-.42,2.85-1.25,4.03-.83,1.18-2.01,2.11-3.53,2.78s-3.3,1.01-5.35,1.01-3.94-.38-5.59-1.13Z"/>
    <path class="cls-5" d="M1003.99,362.91c1.11-2.06,2.63-3.66,4.58-4.78,1.95-1.12,4.19-1.68,6.72-1.68,3.2,0,5.85.76,7.94,2.28s3.51,3.69,4.25,6.5h-5.9c-.48-1.31-1.25-2.34-2.3-3.07-1.06-.74-2.38-1.1-3.98-1.1-2.24,0-4.02.79-5.35,2.38-1.33,1.58-1.99,3.8-1.99,6.65s.66,5.07,1.99,6.67c1.33,1.6,3.11,2.4,5.35,2.4,3.17,0,5.26-1.39,6.29-4.18h5.9c-.77,2.69-2.21,4.82-4.32,6.41-2.11,1.58-4.74,2.38-7.87,2.38-2.53,0-4.77-.57-6.72-1.7-1.95-1.13-3.48-2.74-4.58-4.8-1.1-2.06-1.65-4.46-1.65-7.18s.55-5.11,1.65-7.18Z"/>
    <path class="cls-5" d="M1052.04,357.75c1.58.86,2.83,2.14,3.74,3.84.91,1.7,1.37,3.74,1.37,6.14v15.6h-5.42v-14.78c0-2.37-.59-4.18-1.78-5.45-1.18-1.26-2.8-1.9-4.85-1.9s-3.67.63-4.87,1.9c-1.2,1.26-1.8,3.08-1.8,5.45v14.78h-5.47v-35.52h5.47v12.14c.93-1.12,2.1-1.98,3.53-2.59,1.42-.61,2.98-.91,4.68-.91,2.02,0,3.82.43,5.4,1.3Z"/>
    <path class="cls-5" d="M1068.81,382.06c-2.02-1.13-3.6-2.74-4.75-4.8-1.15-2.06-1.73-4.46-1.73-7.18s.59-5.07,1.78-7.15c1.18-2.08,2.8-3.68,4.85-4.8,2.05-1.12,4.34-1.68,6.86-1.68s4.82.56,6.86,1.68c2.05,1.12,3.66,2.72,4.85,4.8,1.18,2.08,1.78,4.46,1.78,7.15s-.61,5.07-1.82,7.15c-1.22,2.08-2.87,3.69-4.97,4.82-2.1,1.14-4.41,1.7-6.94,1.7s-4.75-.57-6.77-1.7ZM1079.54,378c1.23-.67,2.23-1.68,3-3.02.77-1.34,1.15-2.98,1.15-4.9s-.37-3.54-1.1-4.87c-.74-1.33-1.71-2.33-2.93-3s-2.53-1.01-3.94-1.01-2.71.34-3.91,1.01c-1.2.67-2.15,1.67-2.86,3-.71,1.33-1.06,2.95-1.06,4.87,0,2.85.73,5.05,2.18,6.6,1.46,1.55,3.29,2.33,5.5,2.33,1.41,0,2.73-.34,3.96-1.01Z"/>
    <path class="cls-5" d="M1099.44,382.06c-2.02-1.13-3.6-2.74-4.75-4.8-1.15-2.06-1.73-4.46-1.73-7.18s.59-5.07,1.78-7.15c1.18-2.08,2.8-3.68,4.85-4.8,2.05-1.12,4.34-1.68,6.86-1.68s4.82.56,6.86,1.68c2.05,1.12,3.66,2.72,4.85,4.8,1.18,2.08,1.78,4.46,1.78,7.15s-.61,5.07-1.82,7.15c-1.22,2.08-2.87,3.69-4.97,4.82-2.1,1.14-4.41,1.7-6.94,1.7s-4.75-.57-6.77-1.7ZM1110.17,378c1.23-.67,2.23-1.68,3-3.02.77-1.34,1.15-2.98,1.15-4.9s-.37-3.54-1.1-4.87c-.74-1.33-1.71-2.33-2.93-3s-2.53-1.01-3.94-1.01-2.71.34-3.91,1.01c-1.2.67-2.15,1.67-2.86,3-.71,1.33-1.06,2.95-1.06,4.87,0,2.85.73,5.05,2.18,6.6,1.46,1.55,3.29,2.33,5.5,2.33,1.41,0,2.73-.34,3.96-1.01Z"/>
    <path class="cls-5" d="M1130.83,347.81v35.52h-5.47v-35.52h5.47Z"/>
    <path class="cls-5" d="M1154.52,382.63c-1.65-.75-2.95-1.78-3.91-3.07-.96-1.3-1.47-2.74-1.54-4.34h5.66c.1,1.12.63,2.06,1.61,2.81s2.2,1.13,3.67,1.13,2.73-.3,3.58-.89c.85-.59,1.27-1.35,1.27-2.28,0-.99-.47-1.73-1.42-2.21-.94-.48-2.44-1.01-4.49-1.58-1.98-.54-3.6-1.07-4.85-1.58s-2.33-1.3-3.24-2.35c-.91-1.06-1.37-2.45-1.37-4.18,0-1.41.42-2.7,1.25-3.86.83-1.17,2.02-2.09,3.58-2.76,1.55-.67,3.34-1.01,5.35-1.01,3.01,0,5.43.76,7.27,2.28s2.82,3.59,2.95,6.22h-5.47c-.1-1.18-.58-2.13-1.44-2.83-.87-.7-2.03-1.06-3.5-1.06s-2.54.27-3.31.82c-.77.54-1.15,1.26-1.15,2.16,0,.7.26,1.3.77,1.78.51.48,1.14.86,1.87,1.13.73.27,1.82.62,3.26,1.03,1.92.51,3.5,1.03,4.73,1.56,1.23.53,2.29,1.3,3.19,2.33.89,1.02,1.36,2.38,1.39,4.08,0,1.5-.42,2.85-1.25,4.03-.83,1.18-2.01,2.11-3.53,2.78s-3.3,1.01-5.35,1.01-3.94-.38-5.59-1.13Z"/>
    <path class="cls-5" d="M1182.52,361.34v14.64c0,.99.23,1.7.7,2.14.46.43,1.26.65,2.38.65h3.36v4.56h-4.32c-2.46,0-4.35-.58-5.66-1.73-1.31-1.15-1.97-3.02-1.97-5.62v-14.64h-3.12v-4.46h3.12v-6.58h5.52v6.58h6.43v4.46h-6.43Z"/>
    <path class="cls-5" d="M1217.95,356.88v26.45h-5.47v-3.12c-.86,1.09-1.99,1.94-3.38,2.57-1.39.62-2.87.94-4.44.94-2.08,0-3.94-.43-5.59-1.3s-2.94-2.14-3.89-3.84c-.95-1.7-1.42-3.74-1.42-6.14v-15.55h5.42v14.74c0,2.37.59,4.18,1.78,5.45,1.18,1.26,2.8,1.9,4.85,1.9s3.67-.63,4.87-1.9c1.2-1.26,1.8-3.08,1.8-5.45v-14.74h5.47Z"/>
    <path class="cls-5" d="M1224.98,362.93c1.1-2.05,2.61-3.64,4.51-4.78s4.02-1.7,6.36-1.7c1.73,0,3.43.38,5.11,1.13s3.02,1.75,4.01,3v-12.77h5.52v35.52h-5.52v-3.98c-.9,1.28-2.14,2.34-3.72,3.17-1.58.83-3.4,1.25-5.45,1.25-2.3,0-4.41-.58-6.31-1.75-1.9-1.17-3.41-2.8-4.51-4.9s-1.66-4.47-1.66-7.13.55-5.01,1.66-7.06ZM1243.84,365.33c-.75-1.34-1.74-2.37-2.95-3.07-1.22-.7-2.53-1.06-3.94-1.06s-2.72.34-3.94,1.03c-1.21.69-2.2,1.7-2.95,3.02-.75,1.33-1.13,2.9-1.13,4.73s.38,3.42,1.13,4.8,1.74,2.42,2.98,3.14c1.23.72,2.54,1.08,3.91,1.08s2.72-.35,3.94-1.06c1.21-.7,2.2-1.74,2.95-3.1s1.13-2.95,1.13-4.78-.38-3.41-1.13-4.75Z"/>
    <path class="cls-5" d="M1281.74,372.15h-20.21c.16,2.11.94,3.81,2.35,5.09s3.13,1.92,5.18,1.92c2.94,0,5.02-1.23,6.24-3.7h5.9c-.8,2.43-2.25,4.42-4.34,5.98-2.1,1.55-4.7,2.33-7.8,2.33-2.53,0-4.79-.57-6.79-1.7-2-1.13-3.57-2.74-4.7-4.8-1.14-2.06-1.7-4.46-1.7-7.18s.55-5.11,1.65-7.18c1.11-2.06,2.66-3.66,4.66-4.78,2-1.12,4.3-1.68,6.89-1.68s4.72.54,6.67,1.63c1.95,1.09,3.47,2.62,4.56,4.58s1.63,4.23,1.63,6.79c0,.99-.06,1.89-.19,2.69ZM1276.22,367.73c-.03-2.02-.75-3.63-2.16-4.85-1.41-1.22-3.15-1.82-5.23-1.82-1.89,0-3.5.6-4.85,1.8-1.34,1.2-2.14,2.82-2.4,4.87h14.64Z"/>
    <path class="cls-5" d="M1306.24,357.75c1.65.86,2.94,2.14,3.86,3.84.93,1.7,1.39,3.74,1.39,6.14v15.6h-5.42v-14.78c0-2.37-.59-4.18-1.78-5.45-1.18-1.26-2.8-1.9-4.85-1.9s-3.67.63-4.87,1.9c-1.2,1.26-1.8,3.08-1.8,5.45v14.78h-5.47v-26.45h5.47v3.02c.9-1.09,2.04-1.94,3.43-2.54,1.39-.61,2.87-.91,4.44-.91,2.08,0,3.94.43,5.59,1.3Z"/>
    <path class="cls-5" d="M1324.84,361.34v14.64c0,.99.23,1.7.7,2.14.46.43,1.26.65,2.38.65h3.36v4.56h-4.32c-2.46,0-4.35-.58-5.66-1.73-1.31-1.15-1.97-3.02-1.97-5.62v-14.64h-3.12v-4.46h3.12v-6.58h5.52v6.58h6.43v4.46h-6.43Z"/>
    <path class="cls-5" d="M1340.32,382.63c-1.65-.75-2.95-1.78-3.91-3.07-.96-1.3-1.47-2.74-1.54-4.34h5.66c.1,1.12.63,2.06,1.61,2.81s2.2,1.13,3.67,1.13,2.73-.3,3.58-.89c.85-.59,1.27-1.35,1.27-2.28,0-.99-.47-1.73-1.42-2.21-.94-.48-2.44-1.01-4.49-1.58-1.98-.54-3.6-1.07-4.85-1.58s-2.33-1.3-3.24-2.35c-.91-1.06-1.37-2.45-1.37-4.18,0-1.41.42-2.7,1.25-3.86.83-1.17,2.02-2.09,3.58-2.76,1.55-.67,3.34-1.01,5.35-1.01,3.01,0,5.43.76,7.27,2.28s2.82,3.59,2.95,6.22h-5.47c-.1-1.18-.58-2.13-1.44-2.83-.87-.7-2.03-1.06-3.5-1.06s-2.54.27-3.31.82c-.77.54-1.15,1.26-1.15,2.16,0,.7.26,1.3.77,1.78.51.48,1.14.86,1.87,1.13.73.27,1.82.62,3.26,1.03,1.92.51,3.5,1.03,4.73,1.56,1.23.53,2.29,1.3,3.19,2.33.89,1.02,1.36,2.38,1.39,4.08,0,1.5-.42,2.85-1.25,4.03-.83,1.18-2.01,2.11-3.53,2.78s-3.3,1.01-5.35,1.01-3.94-.38-5.59-1.13Z"/>
    <path class="cls-5" d="M1400.2,368.3h-9.7v9.94h-5.09v-9.94h-9.7v-4.61h9.7v-9.94h5.09v9.94h9.7v4.61Z"/>
    <path class="cls-5" d="M1421.01,362.91c1.11-2.06,2.63-3.66,4.58-4.78,1.95-1.12,4.19-1.68,6.72-1.68,3.2,0,5.85.76,7.94,2.28s3.51,3.69,4.25,6.5h-5.9c-.48-1.31-1.25-2.34-2.3-3.07-1.06-.74-2.38-1.1-3.98-1.1-2.24,0-4.02.79-5.35,2.38-1.33,1.58-1.99,3.8-1.99,6.65s.66,5.07,1.99,6.67c1.33,1.6,3.11,2.4,5.35,2.4,3.17,0,5.26-1.39,6.29-4.18h5.9c-.77,2.69-2.21,4.82-4.32,6.41-2.11,1.58-4.74,2.38-7.87,2.38-2.53,0-4.77-.57-6.72-1.7-1.95-1.13-3.48-2.74-4.58-4.8-1.1-2.06-1.65-4.46-1.65-7.18s.55-5.11,1.65-7.18Z"/>
    <path class="cls-5" d="M1454.68,382.06c-2.02-1.13-3.6-2.74-4.75-4.8-1.15-2.06-1.73-4.46-1.73-7.18s.59-5.07,1.78-7.15c1.18-2.08,2.8-3.68,4.85-4.8,2.05-1.12,4.34-1.68,6.86-1.68s4.82.56,6.87,1.68c2.05,1.12,3.66,2.72,4.85,4.8,1.18,2.08,1.78,4.46,1.78,7.15s-.61,5.07-1.82,7.15c-1.21,2.08-2.87,3.69-4.97,4.82-2.1,1.14-4.41,1.7-6.94,1.7s-4.75-.57-6.77-1.7ZM1465.41,378c1.23-.67,2.23-1.68,3-3.02.77-1.34,1.15-2.98,1.15-4.9s-.37-3.54-1.1-4.87c-.74-1.33-1.71-2.33-2.93-3-1.22-.67-2.53-1.01-3.94-1.01s-2.71.34-3.91,1.01c-1.2.67-2.15,1.67-2.86,3-.7,1.33-1.06,2.95-1.06,4.87,0,2.85.73,5.05,2.19,6.6,1.46,1.55,3.29,2.33,5.5,2.33,1.41,0,2.73-.34,3.96-1.01Z"/>
    <path class="cls-5" d="M1518.2,357.75c1.65.86,2.94,2.14,3.89,3.84.94,1.7,1.42,3.74,1.42,6.14v15.6h-5.42v-14.78c0-2.37-.59-4.18-1.78-5.45-1.18-1.26-2.8-1.9-4.85-1.9s-3.67.63-4.87,1.9c-1.2,1.26-1.8,3.08-1.8,5.45v14.78h-5.42v-14.78c0-2.37-.59-4.18-1.78-5.45-1.18-1.26-2.8-1.9-4.85-1.9s-3.67.63-4.87,1.9c-1.2,1.26-1.8,3.08-1.8,5.45v14.78h-5.47v-26.45h5.47v3.02c.89-1.09,2.03-1.94,3.41-2.54,1.38-.61,2.85-.91,4.42-.91,2.11,0,4,.45,5.66,1.34,1.66.9,2.95,2.19,3.84,3.89.8-1.6,2.05-2.87,3.74-3.82,1.7-.94,3.52-1.42,5.47-1.42,2.08,0,3.94.43,5.59,1.3Z"/>
    <path class="cls-5" d="M1568.08,357.75c1.65.86,2.94,2.14,3.89,3.84.94,1.7,1.42,3.74,1.42,6.14v15.6h-5.42v-14.78c0-2.37-.59-4.18-1.78-5.45-1.18-1.26-2.8-1.9-4.85-1.9s-3.67.63-4.87,1.9c-1.2,1.26-1.8,3.08-1.8,5.45v14.78h-5.42v-14.78c0-2.37-.59-4.18-1.78-5.45-1.18-1.26-2.8-1.9-4.85-1.9s-3.67.63-4.87,1.9c-1.2,1.26-1.8,3.08-1.8,5.45v14.78h-5.47v-26.45h5.47v3.02c.89-1.09,2.03-1.94,3.41-2.54,1.38-.61,2.85-.91,4.42-.91,2.11,0,4,.45,5.66,1.34,1.66.9,2.95,2.19,3.84,3.89.8-1.6,2.05-2.87,3.74-3.82,1.7-.94,3.52-1.42,5.47-1.42,2.08,0,3.94.43,5.59,1.3Z"/>
    <path class="cls-5" d="M1604.29,356.88v26.45h-5.47v-3.12c-.87,1.09-1.99,1.94-3.38,2.57s-2.87.94-4.44.94c-2.08,0-3.95-.43-5.59-1.3-1.65-.86-2.95-2.14-3.89-3.84-.94-1.7-1.42-3.74-1.42-6.14v-15.55h5.42v14.74c0,2.37.59,4.18,1.78,5.45,1.18,1.26,2.8,1.9,4.85,1.9s3.67-.63,4.87-1.9c1.2-1.26,1.8-3.08,1.8-5.45v-14.74h5.47Z"/>
    <path class="cls-5" d="M1630.43,357.75c1.65.86,2.94,2.14,3.86,3.84.93,1.7,1.39,3.74,1.39,6.14v15.6h-5.42v-14.78c0-2.37-.59-4.18-1.78-5.45-1.18-1.26-2.8-1.9-4.85-1.9s-3.67.63-4.87,1.9c-1.2,1.26-1.8,3.08-1.8,5.45v14.78h-5.47v-26.45h5.47v3.02c.9-1.09,2.04-1.94,3.43-2.54,1.39-.61,2.87-.91,4.44-.91,2.08,0,3.94.43,5.59,1.3Z"/>
    <path class="cls-5" d="M1642.93,352.37c-.67-.67-1.01-1.5-1.01-2.5s.34-1.82,1.01-2.5,1.5-1.01,2.5-1.01,1.78.34,2.45,1.01,1.01,1.5,1.01,2.5-.34,1.82-1.01,2.5-1.49,1.01-2.45,1.01-1.82-.34-2.5-1.01ZM1648.11,356.88v26.45h-5.47v-26.45h5.47Z"/>
    <path class="cls-5" d="M1661.7,361.34v14.64c0,.99.23,1.7.7,2.14.46.43,1.26.65,2.38.65h3.36v4.56h-4.32c-2.46,0-4.35-.58-5.66-1.73-1.31-1.15-1.97-3.02-1.97-5.62v-14.64h-3.12v-4.46h3.12v-6.58h5.52v6.58h6.43v4.46h-6.43Z"/>
    <path class="cls-5" d="M1696.98,356.88l-16.22,38.88h-5.66l5.38-12.86-10.42-26.02h6.1l7.44,20.16,7.73-20.16h5.66Z"/>
  </g>
  <g>
    <path d="M630.4,112.14c-2.6,4.69-6.6,8.48-11.98,11.35-5.39,2.88-12.07,4.32-20.06,4.32h-14.77v35.1h-23.82v-97.78h38.58c7.8,0,14.39,1.35,19.78,4.04,5.39,2.7,9.42,6.41,12.12,11.14,2.69,4.74,4.04,10.17,4.04,16.3,0,5.67-1.3,10.84-3.9,15.53ZM606.72,105.66c2.23-2.14,3.34-5.15,3.34-9.06s-1.11-6.92-3.34-9.05c-2.23-2.13-5.62-3.2-10.17-3.2h-12.95v24.52h12.95c4.55,0,7.94-1.07,10.17-3.2Z"/>
    <path d="M719.55,129.76h-53.91c.37,4.83,1.93,8.52,4.67,11.07,2.74,2.56,6.1,3.83,10.1,3.83,5.94,0,10.07-2.51,12.4-7.52h25.35c-1.3,5.11-3.64,9.7-7.03,13.79-3.39,4.09-7.64,7.29-12.75,9.61-5.11,2.32-10.82,3.48-17.13,3.48-7.61,0-14.4-1.62-20.34-4.88-5.94-3.25-10.59-7.89-13.93-13.93-3.34-6.04-5.01-13.09-5.01-21.17s1.65-15.14,4.94-21.17c3.29-6.04,7.92-10.68,13.86-13.93,5.94-3.25,12.77-4.88,20.48-4.88s14.21,1.58,20.06,4.74c5.85,3.16,10.42,7.66,13.72,13.51,3.3,5.85,4.95,12.67,4.95,20.48,0,2.23-.14,4.55-.42,6.96ZM695.59,116.53c0-4.09-1.39-7.33-4.18-9.75-2.79-2.41-6.27-3.62-10.45-3.62s-7.36,1.16-10.1,3.48c-2.74,2.32-4.44,5.62-5.08,9.89h29.81Z"/>
    <path d="M805.36,129.76h-53.91c.37,4.83,1.93,8.52,4.67,11.07,2.74,2.56,6.1,3.83,10.1,3.83,5.94,0,10.07-2.51,12.4-7.52h25.35c-1.3,5.11-3.64,9.7-7.03,13.79-3.39,4.09-7.64,7.29-12.75,9.61-5.11,2.32-10.82,3.48-17.13,3.48-7.61,0-14.4-1.62-20.34-4.88-5.94-3.25-10.59-7.89-13.93-13.93-3.34-6.04-5.01-13.09-5.01-21.17s1.65-15.14,4.94-21.17c3.29-6.04,7.92-10.68,13.86-13.93,5.94-3.25,12.77-4.88,20.48-4.88s14.21,1.58,20.06,4.74c5.85,3.16,10.42,7.66,13.72,13.51,3.3,5.85,4.95,12.67,4.95,20.48,0,2.23-.14,4.55-.42,6.96ZM781.4,116.53c0-4.09-1.39-7.33-4.18-9.75-2.79-2.41-6.27-3.62-10.45-3.62s-7.36,1.16-10.1,3.48c-2.74,2.32-4.44,5.62-5.08,9.89h29.81Z"/>
    <path d="M852.58,88.04c4.18-2.46,8.82-3.69,13.93-3.69v25.21h-6.55c-5.94,0-10.4,1.28-13.37,3.83-2.97,2.56-4.46,7.03-4.46,13.44v36.08h-23.82v-77.73h23.82v12.96c2.79-4.27,6.27-7.64,10.45-10.1Z"/>
    <path d="M928.42,157.48c-7.66-4.27-13.75-10.24-18.25-17.9-4.51-7.66-6.76-16.27-6.76-25.84s2.25-18.15,6.76-25.77c4.5-7.61,10.59-13.56,18.25-17.83,7.66-4.27,16.09-6.41,25.28-6.41s17.62,2.14,25.28,6.41c7.66,4.27,13.7,10.22,18.11,17.83,4.41,7.62,6.62,16.21,6.62,25.77s-2.23,18.18-6.69,25.84c-4.46,7.66-10.5,13.63-18.11,17.9-7.62,4.27-16.02,6.41-25.21,6.41s-17.62-2.13-25.28-6.41ZM972.44,134.36c4.69-5.2,7.03-12.07,7.03-20.62s-2.35-15.53-7.03-20.69c-4.69-5.15-10.94-7.73-18.74-7.73s-14.19,2.56-18.87,7.66c-4.69,5.11-7.03,12.03-7.03,20.76s2.34,15.53,7.03,20.68c4.69,5.15,10.98,7.73,18.87,7.73s14.04-2.6,18.74-7.8Z"/>
    <path d="M1093.69,85.18v77.73h-23.82v-10.59c-2.42,3.44-5.69,6.2-9.82,8.29-4.13,2.09-8.71,3.13-13.72,3.13-5.94,0-11.19-1.32-15.74-3.97-4.55-2.65-8.08-6.48-10.59-11.49-2.51-5.01-3.76-10.91-3.76-17.69v-45.41h23.68v42.21c0,5.2,1.35,9.24,4.04,12.12,2.69,2.88,6.31,4.32,10.86,4.32s8.31-1.44,11-4.32c2.69-2.88,4.04-6.92,4.04-12.12v-42.21h23.82Z"/>
    <path d="M1154.14,142.71v20.2h-12.12c-8.64,0-15.37-2.11-20.2-6.34-4.83-4.22-7.24-11.12-7.24-20.68v-30.92h-9.47v-19.78h9.47v-18.94h23.82v18.94h15.6v19.78h-15.6v31.2c0,2.32.56,3.99,1.67,5.01,1.11,1.02,2.97,1.53,5.57,1.53h8.5Z"/>
    <path d="M1201.64,88.04c4.18-2.46,8.82-3.69,13.93-3.69v25.21h-6.55c-5.94,0-10.4,1.28-13.37,3.83-2.97,2.56-4.46,7.03-4.46,13.44v36.08h-23.82v-77.73h23.82v12.96c2.79-4.27,6.27-7.64,10.45-10.1Z"/>
    <path d="M1299.84,129.76h-53.91c.37,4.83,1.93,8.52,4.67,11.07,2.74,2.56,6.1,3.83,10.1,3.83,5.94,0,10.07-2.51,12.4-7.52h25.35c-1.3,5.11-3.64,9.7-7.03,13.79-3.39,4.09-7.64,7.29-12.75,9.61-5.11,2.32-10.82,3.48-17.13,3.48-7.61,0-14.4-1.62-20.34-4.88-5.94-3.25-10.59-7.89-13.93-13.93-3.34-6.04-5.01-13.09-5.01-21.17s1.65-15.14,4.94-21.17c3.29-6.04,7.92-10.68,13.86-13.93,5.94-3.25,12.77-4.88,20.48-4.88s14.21,1.58,20.06,4.74c5.85,3.16,10.42,7.66,13.72,13.51,3.3,5.85,4.95,12.67,4.95,20.48,0,2.23-.14,4.55-.42,6.96ZM1275.88,116.53c0-4.09-1.39-7.33-4.18-9.75-2.79-2.41-6.27-3.62-10.45-3.62s-7.36,1.16-10.1,3.48c-2.74,2.32-4.44,5.62-5.08,9.89h29.81Z"/>
    <path d="M1312.58,102.87c3.02-6.04,7.13-10.68,12.33-13.93,5.2-3.25,11-4.88,17.41-4.88,5.48,0,10.28,1.11,14.42,3.34,4.13,2.23,7.31,5.15,9.54,8.78v-11h23.82v77.73h-23.82v-11c-2.32,3.62-5.55,6.55-9.68,8.78-4.13,2.23-8.94,3.34-14.42,3.34-6.32,0-12.07-1.65-17.27-4.94-5.2-3.3-9.31-7.99-12.33-14.07-3.02-6.08-4.53-13.12-4.53-21.1s1.51-15,4.53-21.03ZM1361.34,109.98c-3.3-3.43-7.31-5.15-12.05-5.15s-8.75,1.7-12.05,5.08c-3.3,3.39-4.94,8.06-4.94,14s1.65,10.66,4.94,14.14c3.3,3.48,7.31,5.22,12.05,5.22s8.75-1.72,12.05-5.15c3.29-3.43,4.94-8.12,4.94-14.07s-1.65-10.63-4.94-14.07Z"/>
    <path d="M1407.58,102.87c3.29-6.04,7.89-10.68,13.79-13.93,5.9-3.25,12.65-4.88,20.27-4.88,9.75,0,17.9,2.55,24.45,7.66,6.55,5.11,10.84,12.31,12.89,21.59h-25.35c-2.14-5.94-6.27-8.92-12.4-8.92-4.37,0-7.85,1.7-10.45,5.08-2.6,3.39-3.9,8.24-3.9,14.56s1.3,11.17,3.9,14.56c2.6,3.39,6.08,5.08,10.45,5.08,6.13,0,10.26-2.97,12.4-8.91h25.35c-2.04,9.1-6.36,16.25-12.95,21.45-6.6,5.2-14.72,7.8-24.38,7.8-7.62,0-14.37-1.62-20.27-4.88-5.9-3.25-10.5-7.89-13.79-13.93-3.3-6.04-4.94-13.09-4.94-21.17s1.65-15.14,4.94-21.17Z"/>
    <path d="M1560.87,93.19c5.39,5.9,8.08,14,8.08,24.31v45.41h-23.68v-42.21c0-5.2-1.35-9.24-4.04-12.12-2.7-2.88-6.32-4.32-10.86-4.32s-8.17,1.44-10.86,4.32c-2.7,2.88-4.04,6.92-4.04,12.12v42.21h-23.82V59.83h23.82v35.8c2.41-3.43,5.71-6.17,9.89-8.22,4.18-2.04,8.87-3.06,14.07-3.06,8.91,0,16.06,2.95,21.45,8.84Z"/>
    <path d="M1749.61,65.13l-25.49,97.78h-28.83l-15.6-64.35-16.16,64.35h-28.83l-24.79-97.78h25.49l14.07,71.18,17.41-71.18h26.19l16.72,71.18,14.21-71.18h25.63Z"/>
    <path d="M1763.33,73.41c-2.65-2.46-3.97-5.5-3.97-9.12s1.32-6.8,3.97-9.26c2.65-2.46,6.06-3.69,10.24-3.69s7.45,1.23,10.1,3.69c2.65,2.46,3.97,5.55,3.97,9.26s-1.32,6.66-3.97,9.12c-2.65,2.46-6.01,3.69-10.1,3.69s-7.59-1.23-10.24-3.69ZM1785.41,85.18v77.73h-23.82v-77.73h23.82Z"/>
    <path d="M1846,142.71v20.2h-12.12c-8.64,0-15.37-2.11-20.2-6.34-4.83-4.22-7.24-11.12-7.24-20.68v-30.92h-9.47v-19.78h9.47v-18.94h23.82v18.94h15.6v19.78h-15.6v31.2c0,2.32.56,3.99,1.67,5.01,1.11,1.02,2.97,1.53,5.57,1.53h8.5Z"/>
    <path d="M1928.46,93.19c5.39,5.9,8.08,14,8.08,24.31v45.41h-23.68v-42.21c0-5.2-1.35-9.24-4.04-12.12-2.7-2.88-6.32-4.32-10.86-4.32s-8.17,1.44-10.86,4.32c-2.7,2.88-4.04,6.92-4.04,12.12v42.21h-23.82V59.83h23.82v35.8c2.41-3.43,5.71-6.17,9.89-8.22,4.18-2.04,8.87-3.06,14.07-3.06,8.91,0,16.06,2.95,21.45,8.84Z"/>
    <path d="M583.6,204.35v19.78h31.9v18.39h-31.9v21.45h36.08v19.08h-59.9v-97.78h59.9v19.08h-36.08Z"/>
    <path d="M704.3,213.33c5.43,5.9,8.15,14,8.15,24.31v45.41h-23.68v-42.21c0-5.2-1.35-9.24-4.04-12.12-2.7-2.88-6.32-4.32-10.86-4.32s-8.17,1.44-10.86,4.32c-2.7,2.88-4.04,6.92-4.04,12.12v42.21h-23.82v-77.73h23.82v10.31c2.41-3.43,5.66-6.15,9.75-8.15,4.09-2,8.68-2.99,13.79-2.99,9.1,0,16.37,2.95,21.8,8.84Z"/>
    <path d="M801.87,249.9h-53.91c.37,4.83,1.93,8.52,4.67,11.07,2.74,2.56,6.1,3.83,10.1,3.83,5.94,0,10.07-2.51,12.4-7.52h25.35c-1.3,5.11-3.64,9.7-7.03,13.79-3.39,4.09-7.64,7.29-12.75,9.61-5.11,2.32-10.82,3.48-17.13,3.48-7.61,0-14.4-1.62-20.34-4.88-5.94-3.25-10.59-7.89-13.93-13.93-3.34-6.04-5.01-13.09-5.01-21.17s1.65-15.14,4.94-21.17c3.29-6.04,7.92-10.68,13.86-13.93,5.94-3.25,12.77-4.88,20.48-4.88s14.21,1.58,20.06,4.74c5.85,3.16,10.42,7.66,13.72,13.51,3.3,5.85,4.95,12.67,4.95,20.48,0,2.23-.14,4.55-.42,6.96ZM777.91,236.67c0-4.09-1.39-7.33-4.18-9.75-2.79-2.41-6.27-3.62-10.45-3.62s-7.36,1.16-10.1,3.48c-2.74,2.32-4.44,5.62-5.08,9.89h29.81Z"/>
    <path d="M849.09,208.18c4.18-2.46,8.82-3.69,13.93-3.69v25.21h-6.55c-5.94,0-10.4,1.28-13.37,3.83-2.97,2.56-4.46,7.03-4.46,13.44v36.08h-23.82v-77.73h23.82v12.96c2.79-4.27,6.27-7.64,10.45-10.1Z"/>
    <path d="M918.39,207.55c4.13,2.23,7.31,5.15,9.54,8.78v-11h23.82v77.59c0,7.15-1.42,13.63-4.25,19.43-2.83,5.8-7.15,10.42-12.95,13.86-5.8,3.43-13.02,5.15-21.66,5.15-11.51,0-20.85-2.72-28-8.15-7.15-5.43-11.24-12.79-12.26-22.08h23.54c.74,2.97,2.51,5.31,5.29,7.04,2.79,1.72,6.22,2.58,10.31,2.58,4.92,0,8.84-1.42,11.77-4.25,2.93-2.83,4.39-7.36,4.39-13.58v-11c-2.32,3.62-5.53,6.57-9.61,8.84-4.09,2.28-8.87,3.41-14.35,3.41-6.41,0-12.21-1.65-17.41-4.94-5.2-3.3-9.31-7.99-12.33-14.07-3.02-6.08-4.53-13.12-4.53-21.1s1.51-15,4.53-21.03c3.02-6.04,7.13-10.68,12.33-13.93,5.2-3.25,11-4.88,17.41-4.88,5.48,0,10.28,1.11,14.42,3.34ZM922.99,230.12c-3.3-3.43-7.31-5.15-12.05-5.15s-8.75,1.7-12.05,5.08c-3.3,3.39-4.94,8.06-4.94,14s1.65,10.66,4.94,14.14c3.3,3.48,7.31,5.22,12.05,5.22s8.75-1.72,12.05-5.15c3.29-3.43,4.94-8.12,4.94-14.07s-1.65-10.63-4.94-14.07Z"/>
    <path d="M1048.42,205.32l-48.75,114.64h-25.63l17.83-39.56-31.62-75.08h26.61l17.97,48.61,17.83-48.61h25.77Z"/>
    <path d="M1136.45,283.05l-20.34-36.91h-5.71v36.91h-23.82v-97.78h39.98c7.71,0,14.28,1.35,19.71,4.04,5.43,2.7,9.49,6.39,12.19,11.07,2.69,4.69,4.04,9.91,4.04,15.67,0,6.5-1.83,12.31-5.5,17.41-3.67,5.11-9.08,8.73-16.23,10.86l22.57,38.72h-26.88ZM1110.4,229.28h14.77c4.36,0,7.64-1.07,9.82-3.2,2.18-2.13,3.27-5.15,3.27-9.05s-1.09-6.64-3.27-8.78c-2.18-2.13-5.46-3.2-9.82-3.2h-14.77v24.24Z"/>
    <path d="M1250.25,249.9h-53.91c.37,4.83,1.93,8.52,4.67,11.07,2.74,2.56,6.1,3.83,10.1,3.83,5.94,0,10.07-2.51,12.4-7.52h25.35c-1.3,5.11-3.64,9.7-7.03,13.79-3.39,4.09-7.64,7.29-12.75,9.61-5.11,2.32-10.82,3.48-17.13,3.48-7.61,0-14.4-1.62-20.34-4.88-5.94-3.25-10.59-7.89-13.93-13.93-3.34-6.04-5.01-13.09-5.01-21.17s1.65-15.14,4.94-21.17c3.29-6.04,7.92-10.68,13.86-13.93,5.94-3.25,12.77-4.88,20.48-4.88s14.21,1.58,20.06,4.74c5.85,3.16,10.42,7.66,13.72,13.51,3.3,5.85,4.95,12.67,4.95,20.48,0,2.23-.14,4.55-.42,6.96ZM1226.29,236.67c0-4.09-1.39-7.33-4.18-9.75-2.79-2.41-6.27-3.62-10.45-3.62s-7.36,1.16-10.1,3.48c-2.74,2.32-4.44,5.62-5.08,9.89h29.81Z"/>
    <path d="M1276.71,280.68c-5.29-2.32-9.47-5.5-12.54-9.54-3.06-4.04-4.78-8.57-5.15-13.58h23.54c.28,2.7,1.53,4.88,3.76,6.55s4.97,2.51,8.22,2.51c2.97,0,5.27-.58,6.9-1.74,1.62-1.16,2.44-2.67,2.44-4.53,0-2.23-1.16-3.88-3.48-4.94s-6.08-2.25-11.28-3.55c-5.57-1.3-10.22-2.67-13.93-4.11-3.72-1.44-6.92-3.71-9.61-6.83-2.7-3.11-4.04-7.31-4.04-12.61,0-4.46,1.23-8.52,3.69-12.19,2.46-3.67,6.08-6.57,10.86-8.71,4.78-2.14,10.47-3.2,17.06-3.2,9.75,0,17.43,2.42,23.05,7.24,5.62,4.83,8.84,11.24,9.68,19.22h-22.01c-.37-2.69-1.56-4.83-3.55-6.41-2-1.58-4.62-2.37-7.87-2.37-2.79,0-4.92.54-6.41,1.6-1.49,1.07-2.23,2.53-2.23,4.39,0,2.23,1.18,3.9,3.55,5.01s6.06,2.23,11.07,3.34c5.76,1.49,10.45,2.95,14.07,4.39,3.62,1.44,6.8,3.76,9.54,6.96,2.74,3.2,4.15,7.5,4.25,12.89,0,4.55-1.28,8.61-3.83,12.19-2.56,3.58-6.22,6.39-11,8.43-4.78,2.04-10.33,3.06-16.64,3.06-6.78,0-12.82-1.16-18.11-3.48Z"/>
    <path d="M1355.76,279.29c-6.08-3.25-10.86-7.89-14.35-13.93-3.48-6.04-5.22-13.09-5.22-21.17s1.76-15.02,5.29-21.1c3.53-6.08,8.36-10.75,14.49-14,6.13-3.25,13-4.88,20.62-4.88s14.49,1.62,20.62,4.88c6.13,3.25,10.96,7.92,14.49,14,3.53,6.08,5.29,13.12,5.29,21.1s-1.79,15.02-5.36,21.1c-3.58,6.08-8.45,10.75-14.63,14-6.18,3.25-13.07,4.88-20.68,4.88s-14.47-1.62-20.55-4.88ZM1387.94,258.54c3.2-3.34,4.8-8.12,4.8-14.35s-1.56-11-4.66-14.35c-3.11-3.34-6.94-5.01-11.49-5.01s-8.5,1.65-11.56,4.95c-3.07,3.3-4.6,8.1-4.6,14.42s1.51,11,4.53,14.35c3.02,3.34,6.8,5.01,11.35,5.01s8.43-1.67,11.63-5.01Z"/>
    <path d="M1506.41,205.32v77.73h-23.82v-10.59c-2.42,3.44-5.69,6.2-9.82,8.29-4.13,2.09-8.71,3.13-13.72,3.13-5.94,0-11.19-1.32-15.74-3.97-4.55-2.65-8.08-6.48-10.59-11.49-2.51-5.01-3.76-10.91-3.76-17.69v-45.41h23.68v42.21c0,5.2,1.35,9.24,4.04,12.12,2.69,2.88,6.31,4.32,10.86,4.32s8.31-1.44,11-4.32c2.69-2.88,4.04-6.92,4.04-12.12v-42.21h23.82Z"/>
    <path d="M1557.81,208.18c4.18-2.46,8.82-3.69,13.93-3.69v25.21h-6.55c-5.94,0-10.4,1.28-13.37,3.83-2.97,2.56-4.46,7.03-4.46,13.44v36.08h-23.82v-77.73h23.82v12.96c2.79-4.27,6.27-7.64,10.45-10.1Z"/>
    <path d="M1583.37,223.02c3.29-6.04,7.89-10.68,13.79-13.93,5.9-3.25,12.65-4.88,20.27-4.88,9.75,0,17.9,2.55,24.45,7.66,6.55,5.11,10.84,12.31,12.89,21.59h-25.35c-2.14-5.94-6.27-8.92-12.4-8.92-4.37,0-7.85,1.7-10.45,5.08-2.6,3.39-3.9,8.24-3.9,14.56s1.3,11.17,3.9,14.56c2.6,3.39,6.08,5.08,10.45,5.08,6.13,0,10.26-2.97,12.4-8.91h25.35c-2.04,9.1-6.36,16.25-12.95,21.45-6.6,5.2-14.72,7.8-24.38,7.8-7.62,0-14.37-1.62-20.27-4.88-5.9-3.25-10.5-7.89-13.79-13.93-3.3-6.04-4.94-13.09-4.94-21.17s1.65-15.14,4.94-21.17Z"/>
    <path d="M1740.28,249.9h-53.91c.37,4.83,1.93,8.52,4.67,11.07,2.74,2.56,6.1,3.83,10.1,3.83,5.94,0,10.07-2.51,12.4-7.52h25.35c-1.3,5.11-3.64,9.7-7.03,13.79-3.39,4.09-7.64,7.29-12.75,9.61-5.11,2.32-10.82,3.48-17.13,3.48-7.61,0-14.4-1.62-20.34-4.88-5.94-3.25-10.59-7.89-13.93-13.93-3.34-6.04-5.01-13.09-5.01-21.17s1.65-15.14,4.94-21.17c3.29-6.04,7.92-10.68,13.86-13.93,5.94-3.25,12.77-4.88,20.48-4.88s14.21,1.58,20.06,4.74c5.85,3.16,10.42,7.66,13.72,13.51,3.3,5.85,4.95,12.67,4.95,20.48,0,2.23-.14,4.55-.42,6.96ZM1716.32,236.67c0-4.09-1.39-7.33-4.18-9.75-2.79-2.41-6.27-3.62-10.45-3.62s-7.36,1.16-10.1,3.48c-2.74,2.32-4.44,5.62-5.08,9.89h29.81Z"/>
    <path d="M1766.74,280.68c-5.29-2.32-9.47-5.5-12.54-9.54-3.06-4.04-4.78-8.57-5.15-13.58h23.54c.28,2.7,1.53,4.88,3.76,6.55,2.23,1.67,4.97,2.51,8.22,2.51,2.97,0,5.27-.58,6.9-1.74,1.62-1.16,2.44-2.67,2.44-4.53,0-2.23-1.16-3.88-3.48-4.94-2.32-1.07-6.08-2.25-11.28-3.55-5.57-1.3-10.22-2.67-13.93-4.11-3.72-1.44-6.92-3.71-9.61-6.83-2.7-3.11-4.04-7.31-4.04-12.61,0-4.46,1.23-8.52,3.69-12.19,2.46-3.67,6.08-6.57,10.86-8.71,4.78-2.14,10.47-3.2,17.06-3.2,9.75,0,17.43,2.42,23.05,7.24,5.62,4.83,8.84,11.24,9.68,19.22h-22.01c-.37-2.69-1.56-4.83-3.55-6.41-2-1.58-4.62-2.37-7.87-2.37-2.79,0-4.92.54-6.41,1.6-1.49,1.07-2.23,2.53-2.23,4.39,0,2.23,1.18,3.9,3.55,5.01s6.06,2.23,11.07,3.34c5.76,1.49,10.45,2.95,14.07,4.39,3.62,1.44,6.8,3.76,9.54,6.96,2.74,3.2,4.15,7.5,4.25,12.89,0,4.55-1.28,8.61-3.83,12.19-2.56,3.58-6.22,6.39-11,8.43-4.78,2.04-10.33,3.06-16.64,3.06-6.78,0-12.82-1.16-18.11-3.48Z"/>
  </g>
</svg>