<?xml version="1.0" encoding="UTF-8"?>
<svg id="Layer_1" xmlns="http://www.w3.org/2000/svg" viewBox="0 0 494.14 424.43">
  <defs>
    <style>
      .cls-1 {
        stroke-width: 2px;
      }

      .cls-1, .cls-2, .cls-3, .cls-4 {
        stroke-miterlimit: 10;
      }

      .cls-1, .cls-2, .cls-4 {
        stroke: #000;
      }

      .cls-1, .cls-3 {
        fill: #8cc63f;
      }

      .cls-5 {
        fill: #fff;
      }

      .cls-2 {
        fill: #185f8b;
      }

      .cls-2, .cls-3, .cls-4 {
        stroke-width: 3px;
      }

      .cls-3 {
        stroke: blue;
      }

      .cls-6 {
        fill-rule: evenodd;
      }

      .cls-4 {
        fill: #fff38d;
      }
    </style>
  </defs>
  <path class="cls-3" d="M275.49,6.55C202.91,50.53,130.34,94.51,57.77,138.5c-9.05,3.32-11.85,7.24-12.64,10.34-1.05,4.1,1.32,7.17-.57,12.64-1.25,3.59-3.51,5.84-4.6,6.89-5.63,5.48-10.96,4.03-17.23,7.47-4.62,2.53-6.91,6.47-11.49,14.36-6.44,11.09-11.16,19.22-9.34,29.3,2.11,11.69,11.7,18.76,12.79,19.53,7.67,5.48,12.26,3.12,20.68,9.77,5.82,4.59,9.16,10.09,10.34,12.06,5.25,8.8,3.91,13.3,9.19,18.38.83.8,2.86,2.61,11.49,5.74,9.7,3.52,17.51,5,24.7,6.32,16.13,2.96,24.2,4.44,26.43,4.6,15.11,1.02,21.06-6.72,30.45-2.3,4.13,1.95,3.83,3.55,9.77,6.32,6.83,3.18,9.37,2.05,16.66,5.17,4.75,2.03,7.96,4.35,11.49,6.89,8.94,6.45,7.91,8.42,13.21,10.91,7.36,3.46,10.67.29,16.66,4.6.53.38,6.58,4.83,5.74,9.19-.48,2.5-2.75,2.56-5.17,5.74-4.25,5.59-3.02,12.99-2.87,13.79.54,3,1.55,3.91,6.32,12.06,5.14,8.8,4.35,8.38,5.17,9.19,4.67,4.66,9.73,3.16,21.83,6.89,5.85,1.81,4.86,2.64,9.19,3.45,5.98,1.11,8.75-.48,15.51-1.15,6.2-.62,13.72-1.36,20.68,2.3,6.94,3.65,10.74,10.32,12.06,12.64,2.12,3.72,2.24,5.56,5.17,10.91,2.34,4.27,4.68,7.53,6.32,9.63,20.3-20.83,40.6-41.65,60.89-62.48,9.19,9.38,18.38,18.77,27.57,28.15,1.04-1.33,2.73-3.26,5.17-5.17,2.42-1.9,3.7-2.31,5.74-4.02,2.87-2.41,4.55-5.13,5.17-6.32,3.78-7.26-1.06-16.57-1.72-17.81,30.8-55.54,52.3-93.48,56.87-99.38,1.1-1.42,1.68-5.29,4.6-9.77,2.39-3.67,3.79-4.44,4.6-7.47.99-3.73-.36-5.45,1.15-7.47,2.04-2.73,6.81-2.65,6.89-2.3.18.77-8.2,6.65-14.94,4.6-6.47-1.98-6.04-9.7-12.06-10.91-4.67-.95-6.19,3.44-14.3,3.68-1.15.03-8.3.25-9.83-3.11-1.23-2.69,2.27-5.18,1.15-7.47-1.72-3.51-10.8.59-14.92-3.56-4.13-4.15,1.76-11.47-2.31-16.55-4.12-5.13-12.51-.61-17.55-6.44-.84-.98-1.69-4.27-3.36-10.82-1.7-6.72-2.56-10.07-3.22-13.76-1.75-9.75-.85-11.25-2.95-13.84-3.21-3.96-6.42-1.81-11.1-5.76-5.62-4.74-2.85-9.41-8.43-14.92-4.42-4.36-6.91-2.2-13.02-7.28-3.6-3-2.69-3.72-8.81-10.72-4.47-5.12-7.08-8.07-11.49-10.72-3.78-2.28-7.06-3.25-10.34-4.21-5.22-1.54-9.8-2.09-15.32-2.73-8.01-.93-8.55-.4-10.65-1.56-6.09-3.37-7.85-11.32-8.12-12.55-1.41-6.38,1.04-8.59-1.17-12.27-2.14-3.56-5.5-3.26-10.21-5.92-5.6-3.15-8.2-7.86-13.39-17.28-5.63-10.21-8.56-15.52-7.78-22.74.75-6.94,4.54-12.01,6.97-14.71Z"/>
  <path class="cls-2" d="M275.49,6.55C202.91,50.53,130.34,94.51,57.77,138.5c-9.05,3.32-11.85,7.24-12.64,10.34-1.05,4.1,1.32,7.17-.57,12.64-1.25,3.59-3.51,5.84-4.6,6.89-5.63,5.48-10.96,4.03-17.23,7.47-4.62,2.53-6.91,6.47-11.49,14.36-6.44,11.09-11.16,19.22-9.34,29.3,2.11,11.69,11.7,18.76,12.79,19.53,7.67,5.48,12.26,3.12,20.68,9.77,5.82,4.59,9.16,10.09,10.34,12.06,5.25,8.8,3.91,13.3,9.19,18.38.83.8,2.86,2.61,11.49,5.74,9.7,3.52,17.51,5,24.7,6.32,16.13,2.96,24.2,4.44,26.43,4.6,15.11,1.02,21.06-6.72,30.45-2.3,4.13,1.95,3.83,3.55,9.77,6.32,6.83,3.18,9.37,2.05,16.66,5.17,4.75,2.03,7.96,4.35,11.49,6.89,8.94,6.45,7.91,8.42,13.21,10.91,7.36,3.46,10.67.29,16.66,4.6.53.38,6.58,4.83,5.74,9.19-.48,2.5-2.75,2.56-5.17,5.74-4.25,5.59-3.02,12.99-2.87,13.79.54,3,1.55,3.91,6.32,12.06,5.14,8.8,4.35,8.38,5.17,9.19,4.67,4.66,9.73,3.16,21.83,6.89,5.85,1.81,4.86,2.64,9.19,3.45,5.98,1.11,8.75-.48,15.51-1.15,6.2-.62,13.72-1.36,20.68,2.3,6.94,3.65,10.74,10.32,12.06,12.64,2.12,3.72,2.24,5.56,5.17,10.91,2.34,4.27,4.68,7.53,6.32,9.63,20.3-20.83,40.6-41.65,60.89-62.48,9.19,9.38,18.38,18.77,27.57,28.15,1.04-1.33,2.73-3.26,5.17-5.17,2.42-1.9,3.7-2.31,5.74-4.02,2.87-2.41,4.55-5.13,5.17-6.32,3.78-7.26-1.06-16.57-1.72-17.81,30.8-55.54,52.3-93.48,56.87-99.38,1.1-1.42,1.68-5.29,4.6-9.77,2.39-3.67,3.79-4.44,4.6-7.47.99-3.73-.36-5.45,1.15-7.47,2.04-2.73,6.81-2.65,6.89-2.3.18.77-8.2,6.65-14.94,4.6-6.47-1.98-6.04-9.7-12.06-10.91-4.67-.95-6.19,3.44-14.3,3.68-1.15.03-8.3.25-9.83-3.11-1.23-2.69,2.27-5.18,1.15-7.47-1.72-3.51-10.8.59-14.92-3.56-4.13-4.15,1.76-11.47-2.31-16.55-4.12-5.13-12.51-.61-17.55-6.44-.84-.98-1.69-4.27-3.36-10.82-1.7-6.72-2.56-10.07-3.22-13.76-1.75-9.75-.85-11.25-2.95-13.84-3.21-3.96-6.42-1.81-11.1-5.76-5.62-4.74-2.85-9.41-8.43-14.92-4.42-4.36-6.91-2.2-13.02-7.28-3.6-3-2.69-3.72-8.81-10.72-4.47-5.12-7.08-8.07-11.49-10.72-3.78-2.28-7.06-3.25-10.34-4.21-5.22-1.54-9.8-2.09-15.32-2.73-8.01-.93-8.55-.4-10.65-1.56-6.09-3.37-7.85-11.32-8.12-12.55-1.41-6.38,1.04-8.59-1.17-12.27-2.14-3.56-5.5-3.26-10.21-5.92-5.6-3.15-8.2-7.86-13.39-17.28-5.63-10.21-8.56-15.52-7.78-22.74.75-6.94,4.54-12.01,6.97-14.71Z"/>
  <path class="cls-4" d="M214.6,182.03l-125.09,73.53h38.99v39.56c7.79-1.63,12.74-4.67,19.45-1.52,4.13,1.95,3.83,3.55,9.77,6.32,6.83,3.18,9.37,2.05,16.66,5.17,4.75,2.03,7.96,4.35,11.49,6.89,8.94,6.45,7.91,8.42,13.21,10.91,7.36,3.46,10.67.29,16.66,4.6.53.38,6.58,4.83,5.74,9.19-.48,2.5-2.75,2.56-5.17,5.74-4.25,5.59-3.02,12.99-2.87,13.79.54,3,1.55,3.91,6.32,12.06,5.14,8.8,4.35,8.38,5.17,9.19,4.67,4.66,9.73,3.16,21.83,6.89,5.85,1.81,4.86,2.64,9.19,3.45,5.98,1.11,8.75-.48,15.51-1.15,6.2-.62,13.72-1.36,20.68,2.3,3.72,1.96,6.53,4.78,8.55,7.34v-140.74h38.99l-125.09-73.53Z"/>
  <g>
    <path class="cls-6" d="M213.15,277.82c0-.84.69-1.53,1.53-1.53s1.53.69,1.53,1.53v15.71c0,.84-.69,1.53-1.53,1.53s-1.53-.69-1.53-1.53v-15.71h0ZM204.73,273.43c.52-.66,1.48-.77,2.14-.25s.77,1.48.25,2.14l-9.98,12.62c-.52.66-1.48.77-2.14.25-.66-.52-.77-1.48-.25-2.14l9.98-12.62h0ZM216.58,183.37v39.37c3.29.79,5.75,3.76,5.75,7.27v.48h-14.95v-.48c0-3.52,2.47-6.49,5.75-7.27v-39.37s3.45,0,3.45,0ZM214.79,271.94h0c4.03,0,7.34-3.3,7.34-7.34v-.47h-14.68v.47c0,4.04,3.3,7.34,7.34,7.34h0ZM201.45,265.38c.81-.23,1.65.23,1.89,1.04s-.23,1.65-1.04,1.89l-15.46,4.47c-.81.23-1.65-.23-1.89-1.04-.23-.81.23-1.65,1.04-1.89l15.46-4.47h0ZM225.05,274.08l9.98,12.62c.52.66.41,1.62-.25,2.14-.66.52-1.62.41-2.14-.25l-9.98-12.62c-.52-.66-.41-1.62.25-2.14s1.62-.41,2.14.25h0ZM228.33,266.03l15.46,4.47c.81.23,1.27,1.08,1.04,1.89-.23.81-1.08,1.27-1.89,1.04l-15.46-4.47c-.81-.23-1.27-1.08-1.04-1.89s1.08-1.27,1.89-1.04h0Z"/>
    <path d="M222.33,232.12v.05h-14.95v-.05c-19.72,2.59-34.69,15.21-34.69,30.4h84.33c0-15.19-14.97-27.81-34.69-30.4Z"/>
  </g>
  <path class="cls-1" d="M89.03,203.42c.09,4.29-1.08,8.43-3.51,12.43-2.43,4-6.17,7.51-11.22,10.53l-7.75,4.63,11.84,19.81-19.55,11.68-37.25-62.34,27.3-16.31c7.63-4.56,14.64-6.12,21.04-4.69,6.39,1.44,11.54,5.41,15.43,11.93,2.35,3.93,3.57,8.04,3.66,12.33ZM65.55,202.93c-2.28-3.82-5.45-4.51-9.5-2.09l-5.55,3.32,6.84,11.45,5.55-3.31c4.05-2.42,4.94-5.54,2.66-9.35Z"/>
  <path class="cls-1" d="M128.12,216.32c-6.55.17-12.72-1.32-18.51-4.48-5.79-3.15-10.51-7.78-14.15-13.89-3.65-6.1-5.49-12.45-5.53-19.04-.04-6.59,1.58-12.72,4.85-18.38,3.27-5.66,7.84-10.24,13.71-13.75,5.87-3.51,12.06-5.35,18.56-5.53,6.5-.18,12.63,1.31,18.39,4.48,5.76,3.17,10.46,7.81,14.11,13.91,3.65,6.11,5.5,12.45,5.57,19.02.06,6.58-1.53,12.71-4.78,18.39-3.25,5.69-7.78,10.27-13.6,13.74-5.87,3.51-12.08,5.35-18.63,5.52ZM142.6,183.47c.62-3.76-.33-7.75-2.85-11.98-2.56-4.28-5.64-7.04-9.25-8.28-3.6-1.23-7.34-.69-11.22,1.62-3.93,2.35-6.21,5.41-6.83,9.16-.62,3.76.35,7.78,2.91,12.06,2.53,4.23,5.59,6.96,9.19,8.19,3.61,1.23,7.37.67,11.31-1.68,3.87-2.32,6.12-5.35,6.75-9.11Z"/>
  <path class="cls-1" d="M269.77,107.75l-17.04,72.53-28.31-.17-8.17-41.29-8.65,41.19-28.31-.17-16.19-72.72,24.52.14,6.3,45.79,10.12-45.69,24.82.15,9.58,45.81,6.84-45.71,24.52.15Z"/>
  <path class="cls-1" d="M305.33,163.93l-4.55,7.68,19.41,11.51-8.74,14.74-19.41-11.51-5.23,8.82,22.06,13.08-9.26,15.62-41.65-24.69,37.03-62.47,41.65,24.69-9.26,15.62-22.06-13.08Z"/>
  <path class="cls-1" d="M347.7,249.76l1.55-29.37-.09-.05-13.29,22.41-19.59-11.61,37.04-62.47,29.12,17.26c5.06,3,8.85,6.46,11.38,10.38,2.52,3.92,3.77,7.96,3.73,12.11-.04,4.15-1.21,8.17-3.51,12.05-2.48,4.18-5.84,7.2-10.08,9.05-4.24,1.86-8.96,2.2-14.15,1.03l-.59,31.97-21.53-12.76ZM356.9,207.28l7.76,4.6c1.88,1.12,3.55,1.53,4.99,1.23,1.45-.29,2.71-1.35,3.79-3.18.98-1.65,1.26-3.23.85-4.75-.41-1.52-1.53-2.82-3.35-3.9l-7.76-4.6-6.28,10.59Z"/>
  <g>
    <path class="cls-5" d="M312.27,271.7c.48-.88,1.16-1.56,2.02-2.05.87-.49,1.85-.73,2.94-.73,1.34,0,2.49.36,3.45,1.07s1.6,1.68,1.92,2.9h-3.03c-.23-.47-.55-.83-.96-1.08-.41-.25-.88-.37-1.41-.37-.85,0-1.54.3-2.07.89-.53.59-.79,1.38-.79,2.37s.26,1.78.79,2.37c.53.59,1.22.89,2.07.89.53,0,1-.12,1.41-.37.41-.25.73-.61.96-1.08h3.03c-.32,1.23-.96,2.19-1.92,2.9s-2.11,1.06-3.45,1.06c-1.1,0-2.08-.24-2.94-.73-.87-.49-1.54-1.17-2.02-2.04s-.73-1.87-.73-2.98.24-2.12.73-2.99Z"/>
    <path class="cls-5" d="M326.03,279.94c-.7-.38-1.26-.91-1.66-1.61-.4-.7-.61-1.52-.61-2.45s.2-1.74.61-2.44.97-1.24,1.68-1.62,1.51-.57,2.39-.57,1.68.19,2.39.57,1.27.92,1.68,1.62.61,1.52.61,2.44-.21,1.74-.62,2.44-.98,1.24-1.69,1.62c-.72.38-1.51.56-2.4.56s-1.68-.19-2.38-.56ZM329.75,277.53c.37-.39.56-.94.56-1.66s-.18-1.27-.54-1.66c-.36-.39-.8-.58-1.33-.58s-.98.19-1.34.57-.53.94-.53,1.67.17,1.28.52,1.66c.35.39.79.58,1.31.58s.98-.19,1.35-.58Z"/>
    <path class="cls-5" d="M342.59,272.3c.63.68.94,1.62.94,2.81v5.26h-2.74v-4.89c0-.6-.16-1.07-.47-1.4s-.73-.5-1.26-.5-.95.17-1.26.5-.47.8-.47,1.4v4.89h-2.76v-9h2.76v1.19c.28-.4.66-.71,1.13-.94.47-.23,1.01-.35,1.6-.35,1.05,0,1.9.34,2.52,1.02Z"/>
    <path class="cls-5" d="M353.46,272.3c.63.68.94,1.62.94,2.81v5.26h-2.74v-4.89c0-.6-.16-1.07-.47-1.4s-.73-.5-1.26-.5-.95.17-1.26.5-.47.8-.47,1.4v4.89h-2.76v-9h2.76v1.19c.28-.4.66-.71,1.13-.94.47-.23,1.01-.35,1.6-.35,1.05,0,1.9.34,2.52,1.02Z"/>
    <path class="cls-5" d="M364.76,276.53h-6.24c.04.56.22.99.54,1.28s.71.44,1.17.44c.69,0,1.17-.29,1.44-.87h2.94c-.15.59-.42,1.12-.81,1.6s-.88.84-1.48,1.11c-.59.27-1.25.4-1.98.4-.88,0-1.67-.19-2.36-.56-.69-.38-1.23-.91-1.61-1.61-.39-.7-.58-1.52-.58-2.45s.19-1.75.57-2.45c.38-.7.92-1.24,1.61-1.61.69-.38,1.48-.57,2.37-.57s1.65.18,2.32.55c.68.37,1.21.89,1.59,1.56s.57,1.47.57,2.37c0,.26-.02.53-.05.81ZM361.99,275c0-.47-.16-.85-.48-1.13-.32-.28-.73-.42-1.21-.42s-.85.13-1.17.4c-.32.27-.51.65-.59,1.15h3.45Z"/>
    <path class="cls-5" d="M366.29,273.42c.38-.7.91-1.24,1.6-1.61s1.47-.57,2.35-.57c1.13,0,2.07.3,2.83.89.76.59,1.26,1.43,1.49,2.5h-2.94c-.25-.69-.73-1.03-1.44-1.03-.51,0-.91.2-1.21.59-.3.39-.45.95-.45,1.69s.15,1.29.45,1.69c.3.39.7.59,1.21.59.71,0,1.19-.34,1.44-1.03h2.94c-.24,1.05-.74,1.88-1.5,2.48-.76.6-1.7.9-2.82.9-.88,0-1.66-.19-2.35-.56-.68-.38-1.22-.91-1.6-1.61-.38-.7-.57-1.52-.57-2.45s.19-1.75.57-2.45Z"/>
    <path class="cls-5" d="M381.04,278.03v2.34h-1.4c-1,0-1.78-.24-2.34-.73-.56-.49-.84-1.29-.84-2.4v-3.58h-1.1v-2.29h1.1v-2.19h2.76v2.19h1.81v2.29h-1.81v3.61c0,.27.06.46.19.58s.34.18.65.18h.98Z"/>
    <path class="cls-5" d="M382.77,270.01c-.31-.28-.46-.64-.46-1.06s.15-.79.46-1.07c.31-.28.7-.43,1.19-.43s.86.14,1.17.43c.31.29.46.64.46,1.07s-.15.77-.46,1.06c-.31.29-.7.43-1.17.43s-.88-.14-1.19-.43ZM385.33,271.37v9h-2.76v-9h2.76Z"/>
    <path class="cls-5" d="M395.34,272.3c.63.68.94,1.62.94,2.81v5.26h-2.74v-4.89c0-.6-.16-1.07-.47-1.4s-.73-.5-1.26-.5-.95.17-1.26.5-.47.8-.47,1.4v4.89h-2.76v-9h2.76v1.19c.28-.4.66-.71,1.13-.94.47-.23,1.01-.35,1.6-.35,1.05,0,1.9.34,2.52,1.02Z"/>
    <path class="cls-5" d="M403.29,271.63c.48.26.85.6,1.1,1.02v-1.27h2.76v8.99c0,.83-.16,1.58-.49,2.25-.33.67-.83,1.21-1.5,1.61-.67.4-1.51.6-2.51.6-1.33,0-2.41-.32-3.24-.94-.83-.63-1.3-1.48-1.42-2.56h2.73c.09.34.29.62.61.81.32.2.72.3,1.19.3.57,0,1.02-.16,1.36-.49.34-.33.51-.85.51-1.57v-1.28c-.27.42-.64.76-1.11,1.02-.47.26-1.03.39-1.66.39-.74,0-1.41-.19-2.02-.57-.6-.38-1.08-.93-1.43-1.63-.35-.7-.52-1.52-.52-2.44s.17-1.74.52-2.44.83-1.24,1.43-1.61c.6-.38,1.27-.57,2.02-.57.63,0,1.19.13,1.67.39ZM403.83,274.24c-.38-.4-.85-.6-1.4-.6s-1.01.2-1.4.59c-.38.39-.57.93-.57,1.62s.19,1.23.57,1.64.85.6,1.4.6,1.01-.2,1.4-.6c.38-.4.57-.94.57-1.63s-.19-1.23-.57-1.63Z"/>
    <path class="cls-5" d="M320.03,291.12c.62.68.94,1.62.94,2.81v5.26h-2.74v-4.89c0-.6-.16-1.07-.47-1.4s-.73-.5-1.26-.5-.95.17-1.26.5-.47.8-.47,1.4v4.89h-2.76v-11.94h2.76v4.15c.28-.4.66-.72,1.15-.95s1.03-.36,1.63-.36c1.03,0,1.86.34,2.48,1.02Z"/>
    <path class="cls-5" d="M323.09,288.83c-.31-.28-.46-.64-.46-1.06s.15-.79.46-1.07c.31-.28.7-.43,1.19-.43s.86.14,1.17.43c.31.29.46.64.46,1.07s-.15.77-.46,1.06c-.31.29-.7.43-1.17.43s-.88-.14-1.19-.43ZM325.65,290.19v9h-2.76v-9h2.76Z"/>
    <path class="cls-5" d="M332.74,290.45c.48.26.85.6,1.1,1.02v-1.27h2.76v8.99c0,.83-.16,1.58-.49,2.25-.33.67-.83,1.21-1.5,1.61-.67.4-1.51.6-2.51.6-1.33,0-2.41-.32-3.24-.94-.83-.63-1.3-1.48-1.42-2.56h2.73c.09.34.29.62.61.81.32.2.72.3,1.19.3.57,0,1.02-.16,1.36-.49.34-.33.51-.85.51-1.57v-1.28c-.27.42-.64.76-1.11,1.02-.47.26-1.03.39-1.66.39-.74,0-1.41-.19-2.02-.57-.6-.38-1.08-.93-1.43-1.63-.35-.7-.52-1.52-.52-2.44s.17-1.74.52-2.44.83-1.24,1.43-1.61c.6-.38,1.27-.57,2.02-.57.63,0,1.19.13,1.67.39ZM333.27,293.06c-.38-.4-.85-.6-1.4-.6s-1.01.2-1.4.59c-.38.39-.57.93-.57,1.62s.19,1.23.57,1.64.85.6,1.4.6,1.01-.2,1.4-.6c.38-.4.57-.94.57-1.63s-.19-1.23-.57-1.63Z"/>
    <path class="cls-5" d="M346.62,291.12c.62.68.94,1.62.94,2.81v5.26h-2.74v-4.89c0-.6-.16-1.07-.47-1.4s-.73-.5-1.26-.5-.95.17-1.26.5-.47.8-.47,1.4v4.89h-2.76v-11.94h2.76v4.15c.28-.4.66-.72,1.15-.95s1.03-.36,1.63-.36c1.03,0,1.86.34,2.48,1.02Z"/>
    <path class="cls-5" d="M354.46,298.92c-.61-.27-1.1-.64-1.45-1.11-.35-.47-.55-.99-.6-1.57h2.73c.03.31.18.56.44.76s.58.29.95.29c.34,0,.61-.07.8-.2.19-.13.28-.31.28-.52,0-.26-.13-.45-.4-.57-.27-.12-.7-.26-1.31-.41-.65-.15-1.18-.31-1.61-.48-.43-.17-.8-.43-1.11-.79-.31-.36-.47-.85-.47-1.46,0-.52.14-.99.43-1.41.28-.42.7-.76,1.26-1.01.55-.25,1.21-.37,1.98-.37,1.13,0,2.02.28,2.67.84s1.02,1.3,1.12,2.23h-2.55c-.04-.31-.18-.56-.41-.74-.23-.18-.54-.27-.91-.27-.32,0-.57.06-.74.19-.17.12-.26.29-.26.51,0,.26.14.45.41.58.27.13.7.26,1.28.39.67.17,1.21.34,1.63.51.42.17.79.44,1.11.81.32.37.48.87.49,1.49,0,.53-.15,1-.44,1.41s-.72.74-1.27.98c-.55.24-1.2.35-1.93.35-.79,0-1.48-.13-2.1-.4Z"/>
    <path class="cls-5" d="M361.92,292.24c.38-.7.91-1.24,1.6-1.61s1.47-.57,2.35-.57c1.13,0,2.07.3,2.83.89.76.59,1.26,1.43,1.49,2.5h-2.94c-.25-.69-.73-1.03-1.44-1.03-.51,0-.91.2-1.21.59-.3.39-.45.95-.45,1.69s.15,1.29.45,1.69c.3.39.7.59,1.21.59.71,0,1.19-.34,1.44-1.03h2.94c-.24,1.05-.74,1.88-1.5,2.48-.76.6-1.7.9-2.82.9-.88,0-1.66-.19-2.35-.56-.68-.38-1.22-.91-1.6-1.61-.38-.7-.57-1.52-.57-2.45s.19-1.75.57-2.45Z"/>
    <path class="cls-5" d="M379.67,291.12c.62.68.94,1.62.94,2.81v5.26h-2.74v-4.89c0-.6-.16-1.07-.47-1.4s-.73-.5-1.26-.5-.95.17-1.26.5-.47.8-.47,1.4v4.89h-2.76v-11.94h2.76v4.15c.28-.4.66-.72,1.15-.95s1.03-.36,1.63-.36c1.03,0,1.86.34,2.48,1.02Z"/>
    <path class="cls-5" d="M384.24,298.76c-.7-.38-1.26-.91-1.66-1.61-.4-.7-.61-1.52-.61-2.45s.2-1.74.61-2.44.97-1.24,1.68-1.62,1.51-.57,2.39-.57,1.68.19,2.39.57,1.27.92,1.68,1.62.61,1.52.61,2.44-.21,1.74-.62,2.44-.98,1.24-1.69,1.62c-.72.38-1.51.56-2.4.56s-1.68-.19-2.38-.56ZM387.97,296.35c.37-.39.56-.94.56-1.66s-.18-1.27-.54-1.66c-.36-.39-.8-.58-1.33-.58s-.98.19-1.34.57-.53.94-.53,1.67.17,1.28.52,1.66c.35.39.79.58,1.31.58s.98-.19,1.35-.58Z"/>
    <path class="cls-5" d="M394.52,298.76c-.7-.38-1.26-.91-1.66-1.61-.4-.7-.61-1.52-.61-2.45s.2-1.74.61-2.44.97-1.24,1.68-1.62,1.51-.57,2.39-.57,1.68.19,2.39.57,1.27.92,1.68,1.62.61,1.52.61,2.44-.21,1.74-.62,2.44-.98,1.24-1.69,1.62c-.72.38-1.51.56-2.4.56s-1.68-.19-2.38-.56ZM398.25,296.35c.37-.39.56-.94.56-1.66s-.18-1.27-.54-1.66c-.36-.39-.8-.58-1.33-.58s-.98.19-1.34.57-.53.94-.53,1.67.17,1.28.52,1.66c.35.39.79.58,1.31.58s.98-.19,1.35-.58Z"/>
    <path class="cls-5" d="M405.83,287.26v11.94h-2.76v-11.94h2.76Z"/>
    <path class="cls-5" d="M313.58,317.74c-.61-.27-1.1-.64-1.45-1.11-.35-.47-.55-.99-.6-1.57h2.73c.03.31.18.56.44.76s.58.29.95.29c.34,0,.61-.07.8-.2.19-.13.28-.31.28-.52,0-.26-.13-.45-.4-.57-.27-.12-.7-.26-1.31-.41-.65-.15-1.18-.31-1.61-.48-.43-.17-.8-.43-1.11-.79-.31-.36-.47-.85-.47-1.46,0-.52.14-.99.43-1.41.28-.42.7-.76,1.26-1.01.55-.25,1.21-.37,1.98-.37,1.13,0,2.02.28,2.67.84s1.02,1.3,1.12,2.23h-2.55c-.04-.31-.18-.56-.41-.74-.23-.18-.54-.27-.91-.27-.32,0-.57.06-.74.19-.17.12-.26.29-.26.51,0,.26.14.45.41.58.27.13.7.26,1.28.39.67.17,1.21.34,1.63.51.42.17.79.44,1.11.81.32.37.48.87.49,1.49,0,.53-.15,1-.44,1.41s-.72.74-1.27.98c-.55.24-1.2.35-1.93.35-.79,0-1.48-.13-2.1-.4Z"/>
    <path class="cls-5" d="M326.03,315.67v2.34h-1.4c-1,0-1.78-.24-2.34-.73-.56-.49-.84-1.29-.84-2.4v-3.58h-1.1v-2.29h1.1v-2.19h2.76v2.19h1.81v2.29h-1.81v3.61c0,.27.06.46.19.58s.34.18.65.18h.98Z"/>
    <path class="cls-5" d="M336.45,309.01v9h-2.76v-1.23c-.28.4-.66.72-1.14.96-.48.24-1.01.36-1.59.36-.69,0-1.3-.15-1.82-.46s-.94-.75-1.23-1.33-.44-1.26-.44-2.05v-5.26h2.74v4.89c0,.6.16,1.07.47,1.4.31.33.73.5,1.26.5s.96-.17,1.27-.5c.31-.33.47-.8.47-1.4v-4.89h2.76Z"/>
    <path class="cls-5" d="M338.41,311.06c.35-.7.83-1.24,1.43-1.61.6-.38,1.27-.57,2.02-.57.59,0,1.13.12,1.62.37.49.25.87.58,1.15,1v-4.18h2.76v11.94h-2.76v-1.29c-.26.43-.63.77-1.1,1.03-.48.26-1.03.39-1.67.39-.74,0-1.41-.19-2.02-.57-.6-.38-1.08-.93-1.43-1.63-.35-.7-.52-1.52-.52-2.44s.17-1.74.52-2.44ZM344.06,311.88c-.38-.4-.85-.6-1.4-.6s-1.01.2-1.4.59c-.38.39-.57.93-.57,1.62s.19,1.23.57,1.64.85.6,1.4.6,1.01-.2,1.4-.6c.38-.4.57-.94.57-1.63s-.19-1.23-.57-1.63Z"/>
    <path class="cls-5" d="M357.83,314.17h-6.24c.04.56.22.99.54,1.28s.71.44,1.17.44c.69,0,1.17-.29,1.44-.87h2.94c-.15.59-.42,1.12-.81,1.6s-.88.84-1.48,1.11c-.59.27-1.25.4-1.98.4-.88,0-1.67-.19-2.36-.56-.69-.38-1.23-.91-1.61-1.61-.39-.7-.58-1.52-.58-2.45s.19-1.75.57-2.45c.38-.7.92-1.24,1.61-1.61.69-.38,1.48-.57,2.37-.57s1.65.18,2.32.55c.68.37,1.21.89,1.59,1.56s.57,1.47.57,2.37c0,.26-.02.53-.05.81ZM355.05,312.64c0-.47-.16-.85-.48-1.13-.32-.28-.73-.42-1.21-.42s-.85.13-1.17.4c-.32.27-.51.65-.59,1.15h3.45Z"/>
    <path class="cls-5" d="M367.34,309.94c.63.68.94,1.62.94,2.81v5.26h-2.74v-4.89c0-.6-.16-1.07-.47-1.4s-.73-.5-1.26-.5-.95.17-1.26.5-.47.8-.47,1.4v4.89h-2.76v-9h2.76v1.19c.28-.4.66-.71,1.13-.94.47-.23,1.01-.35,1.6-.35,1.05,0,1.9.34,2.52,1.02Z"/>
    <path class="cls-5" d="M375.22,315.67v2.34h-1.4c-1,0-1.78-.24-2.34-.73-.56-.49-.84-1.29-.84-2.4v-3.58h-1.1v-2.29h1.1v-2.19h2.76v2.19h1.81v2.29h-1.81v3.61c0,.27.06.46.19.58s.34.18.65.18h.98Z"/>
    <path class="cls-5" d="M378.31,317.74c-.61-.27-1.1-.64-1.45-1.11-.35-.47-.55-.99-.6-1.57h2.73c.03.31.18.56.44.76s.58.29.95.29c.34,0,.61-.07.8-.2.19-.13.28-.31.28-.52,0-.26-.13-.45-.4-.57-.27-.12-.7-.26-1.31-.41-.65-.15-1.18-.31-1.61-.48-.43-.17-.8-.43-1.11-.79-.31-.36-.47-.85-.47-1.46,0-.52.14-.99.43-1.41.28-.42.7-.76,1.26-1.01.55-.25,1.21-.37,1.98-.37,1.13,0,2.02.28,2.67.84s1.02,1.3,1.12,2.23h-2.55c-.04-.31-.18-.56-.41-.74-.23-.18-.54-.27-.91-.27-.32,0-.57.06-.74.19-.17.12-.26.29-.26.51,0,.26.14.45.41.58.27.13.7.26,1.28.39.67.17,1.21.34,1.63.51.42.17.79.44,1.11.81.32.37.48.87.49,1.49,0,.53-.15,1-.44,1.41s-.72.74-1.27.98c-.55.24-1.2.35-1.93.35-.79,0-1.48-.13-2.1-.4Z"/>
    <path class="cls-5" d="M397.35,313.61h-2.81v2.87h-2.61v-2.87h-2.81v-2.47h2.81v-2.89h2.61v2.89h2.81v2.47Z"/>
    <path class="cls-5" d="M312.04,329.88c.38-.7.91-1.24,1.6-1.61s1.47-.57,2.35-.57c1.13,0,2.07.3,2.83.89.76.59,1.26,1.43,1.49,2.5h-2.94c-.25-.69-.73-1.03-1.44-1.03-.51,0-.91.2-1.21.59-.3.39-.45.95-.45,1.69s.15,1.29.45,1.69c.3.39.7.59,1.21.59.71,0,1.19-.34,1.44-1.03h2.94c-.24,1.05-.74,1.88-1.5,2.48-.76.6-1.7.9-2.82.9-.88,0-1.66-.19-2.35-.56-.68-.38-1.22-.91-1.6-1.61-.38-.7-.57-1.52-.57-2.45s.19-1.75.57-2.45Z"/>
    <path class="cls-5" d="M323.49,336.4c-.7-.38-1.26-.91-1.66-1.61-.4-.7-.61-1.52-.61-2.45s.2-1.74.61-2.44.97-1.24,1.68-1.62,1.51-.57,2.39-.57,1.68.19,2.39.57,1.27.92,1.68,1.62.61,1.52.61,2.44-.21,1.74-.62,2.44-.98,1.24-1.69,1.62c-.72.38-1.51.56-2.4.56s-1.68-.19-2.38-.56ZM327.22,333.99c.37-.39.56-.94.56-1.66s-.18-1.27-.54-1.66c-.36-.39-.8-.58-1.33-.58s-.98.19-1.34.57-.53.94-.53,1.67.17,1.28.52,1.66c.35.39.79.58,1.31.58s.98-.19,1.35-.58Z"/>
    <path class="cls-5" d="M346.21,328.75c.66.68.99,1.62.99,2.82v5.26h-2.74v-4.89c0-.58-.15-1.03-.46-1.35-.31-.32-.73-.48-1.27-.48s-.96.16-1.27.48c-.31.32-.46.77-.46,1.35v4.89h-2.74v-4.89c0-.58-.15-1.03-.46-1.35-.31-.32-.73-.48-1.27-.48s-.96.16-1.27.48c-.31.32-.46.77-.46,1.35v4.89h-2.76v-9h2.76v1.13c.28-.38.65-.67,1.1-.9s.96-.33,1.53-.33c.68,0,1.28.15,1.81.44.53.29.95.7,1.25,1.24.31-.49.74-.9,1.27-1.21.54-.31,1.12-.47,1.76-.47,1.12,0,2.01.34,2.67,1.02Z"/>
    <path class="cls-5" d="M363.29,328.75c.66.68.99,1.62.99,2.82v5.26h-2.74v-4.89c0-.58-.15-1.03-.46-1.35-.31-.32-.73-.48-1.27-.48s-.96.16-1.27.48c-.31.32-.46.77-.46,1.35v4.89h-2.74v-4.89c0-.58-.15-1.03-.46-1.35-.31-.32-.73-.48-1.27-.48s-.96.16-1.27.48c-.31.32-.46.77-.46,1.35v4.89h-2.76v-9h2.76v1.13c.28-.38.65-.67,1.1-.9s.96-.33,1.53-.33c.68,0,1.28.15,1.81.44.53.29.95.7,1.25,1.24.31-.49.74-.9,1.27-1.21.54-.31,1.12-.47,1.76-.47,1.12,0,2.01.34,2.67,1.02Z"/>
    <path class="cls-5" d="M375.11,327.83v9h-2.76v-1.23c-.28.4-.66.72-1.14.96-.48.24-1.01.36-1.59.36-.69,0-1.3-.15-1.82-.46s-.94-.75-1.23-1.33-.44-1.26-.44-2.05v-5.26h2.74v4.89c0,.6.16,1.07.47,1.4.31.33.73.5,1.26.5s.96-.17,1.27-.5c.31-.33.47-.8.47-1.4v-4.89h2.76Z"/>
    <path class="cls-5" d="M385.1,328.76c.63.68.94,1.62.94,2.81v5.26h-2.74v-4.89c0-.6-.16-1.07-.47-1.4s-.73-.5-1.26-.5-.95.17-1.26.5-.47.8-.47,1.4v4.89h-2.76v-9h2.76v1.19c.28-.4.66-.71,1.13-.94.47-.23,1.01-.35,1.6-.35,1.05,0,1.9.34,2.52,1.02Z"/>
    <path class="cls-5" d="M388.16,326.47c-.31-.28-.46-.64-.46-1.06s.15-.79.46-1.07c.31-.28.7-.43,1.19-.43s.86.14,1.17.43c.31.29.46.64.46,1.07s-.15.77-.46,1.06c-.31.29-.7.43-1.17.43s-.88-.14-1.19-.43ZM390.72,327.83v9h-2.76v-9h2.76Z"/>
    <path class="cls-5" d="M397.74,334.49v2.34h-1.4c-1,0-1.78-.24-2.34-.73-.56-.49-.84-1.29-.84-2.4v-3.58h-1.1v-2.29h1.1v-2.19h2.76v2.19h1.81v2.29h-1.81v3.61c0,.27.06.46.19.58s.34.18.65.18h.98Z"/>
    <path class="cls-5" d="M408.46,327.83l-5.65,13.28h-2.97l2.06-4.58-3.66-8.7h3.08l2.08,5.63,2.06-5.63h2.98Z"/>
  </g>
</svg>